<?xml version="1.0" encoding="utf-8"?>
<!-- Generator: Adobe Illustrator 23.0.1, SVG Export Plug-In . SVG Version: 6.00 Build 0)  -->
<svg version="1.1" id="圖層_1" xmlns="http://www.w3.org/2000/svg" xmlns:xlink="http://www.w3.org/1999/xlink" x="0px" y="0px"
	 viewBox="0 0 148.9946 61.9057" style="enable-background:new 0 0 148.9946 61.9057;" xml:space="preserve">
<style type="text/css">
	.st0{fill:url(#SVGID_1_);}
	.st1{fill:url(#SVGID_2_);}
	.st2{opacity:0.3;}
	.st3{fill:#9F9E9E;}
	.st4{fill:#B7B6B6;}
	.st5{fill:#CFCFCF;}
	.st6{fill:#E7E7E7;}
	.st7{fill:#FFFFFF;}
	.st8{fill:url(#SVGID_3_);}
</style>
<g>
	<g>
		<linearGradient id="SVGID_1_" gradientUnits="userSpaceOnUse" x1="74.4862" y1="-5.0293" x2="74.4862" y2="44.8806">
			<stop  offset="0.0485" style="stop-color:#C9E700"/>
			<stop  offset="0.3117" style="stop-color:#C5E300"/>
			<stop  offset="0.5754" style="stop-color:#B9D700"/>
			<stop  offset="0.7697" style="stop-color:#ABC900"/>
			<stop  offset="0.8456" style="stop-color:#A8C500"/>
			<stop  offset="0.9217" style="stop-color:#9EB900"/>
			<stop  offset="0.9879" style="stop-color:#91A800"/>
		</linearGradient>
		<path class="st0" d="M30.0876,49.4178c-16.601,0-30.0569-11.041-30.0569-24.6597V0.0973h118.8541
			c16.601,0,30.0569,11.041,30.0569,24.6609v24.6597H30.0876z"/>
		<linearGradient id="SVGID_2_" gradientUnits="userSpaceOnUse" x1="76.7064" y1="57.8185" x2="76.7064" y2="43.2192">
			<stop  offset="0" style="stop-color:#FFFFFF"/>
			<stop  offset="0.135" style="stop-color:#E3E3E3"/>
			<stop  offset="0.4274" style="stop-color:#9B9B9B"/>
			<stop  offset="0.8514" style="stop-color:#292929"/>
			<stop  offset="1" style="stop-color:#000000"/>
		</linearGradient>
		<path class="st1" d="M148.9417,50.1917H30.0876c-10.8369,0-20.329,4.7059-25.6164,11.7611h144.4706V50.1917z"/>
		<g class="st2">
			<g>
				<path class="st3" d="M30.0876,48.6185h118.0543V26.0929c0.0354-1.9695-0.0472-3.7745-0.472-5.6213
					c-0.4081-1.8238-1.0712-3.591-1.9582-5.242c-1.7696-3.3127-4.3981-6.1469-7.463-8.3537
					c-3.0672-2.2155-6.5781-3.8122-10.2423-4.7943c-1.8356-0.4914-3.7114-0.8276-5.6037-1.0128
					c-1.8923-0.2036-3.7868-0.1735-5.7476-0.1723H93.3298H0.8305v16.1368l0.0141,8.4392c0.0945,2.7121,0.7669,5.3954,1.9324,7.8534
					c2.3311,4.9418,6.5357,8.8833,11.3844,11.4467C19.0265,47.3574,24.5688,48.6174,30.0876,48.6185v0.8311
					c-5.6462-0.0017-11.3183-1.2895-16.3155-3.9431c-4.9784-2.6331-9.3197-6.6896-11.7453-11.8261
					c-1.2127-2.5535-1.9134-5.3512-2.0126-8.1784L0,17.0333V0.0654h93.3298h23.3254c3.8813-0.0972,7.8051,0.1782,11.5659,1.2133
					c3.754,1.0063,7.3568,2.6438,10.5137,4.9236c3.1521,2.271,5.8702,5.1961,7.7082,8.635
					c1.8734,3.4234,2.7016,7.3691,2.5294,11.2556v23.3567H30.0876V48.6185z"/>
				<path class="st4" d="M30.0876,47.8528H147.375V26.0929v-1.4481c-0.0071-0.4495-0.0188-0.8983-0.0567-1.3455
					c-0.0708-0.8948-0.1981-1.7855-0.3964-2.6614c-0.3916-1.753-1.0288-3.4536-1.8851-5.0468
					c-1.7083-3.1958-4.2541-5.9458-7.2365-8.0934c-2.9847-2.1566-6.4105-3.7167-9.9922-4.6764
					c-1.7931-0.4796-3.6288-0.8087-5.481-0.9897c-1.8497-0.1988-3.6972-0.17-5.6721-0.1694H93.3298H1.5974v15.3711l0.0117,8.4114
					c0.0921,2.6066,0.7362,5.1843,1.8617,7.5538c2.2438,4.763,6.3209,8.5977,11.0491,11.0976
					C19.2648,46.6165,24.6844,47.8517,30.0876,47.8528v0.8305c-5.5306-0.0011-11.0799-1.264-15.9569-3.8535
					c-4.8581-2.5695-9.0721-6.5197-11.4126-11.4763c-1.1679-2.4656-1.8427-5.1577-1.9371-7.8794l-0.0141-8.4409V0.8317h92.5629
					h23.3254c1.9583-0.0006,3.8577-0.0307,5.7547,0.1729c1.8947,0.1858,3.7751,0.5226,5.6131,1.0145
					c3.6712,0.9839,7.1891,2.5842,10.2635,4.8045c3.0696,2.2119,5.7075,5.0533,7.4817,8.3754
					c0.8896,1.6563,1.5549,3.4289,1.9655,5.2586c0.4246,1.8509,0.5073,3.6677,0.4719,5.6355v22.5904H30.0876V47.8528z"/>
				<path class="st5" d="M30.0876,47.0855h116.5206V26.0929v-1.444c-0.007-0.4305-0.0188-0.8617-0.0542-1.2905
					c-0.0684-0.8583-0.1911-1.713-0.3798-2.5535c-0.3775-1.6829-0.9886-3.3168-1.8145-4.8522
					c-1.6445-3.0778-4.1078-5.7447-7.0076-7.8334c-2.902-2.0963-6.243-3.6194-9.742-4.5572
					c-1.7531-0.4684-3.5463-0.7904-5.3559-0.9674c-1.8098-0.1946-3.6075-0.1663-5.599-0.1651H93.3298H2.3641v14.6036L2.376,25.417
					c0.0896,2.5016,0.7055,4.9731,1.7861,7.2541c2.1613,4.5831,6.1086,8.3116,10.719,10.7471
					C19.503,45.875,24.8,47.0849,30.0876,47.0855v0.8311c-5.4126-0.0012-10.8416-1.2381-15.5982-3.7639
					c-4.7378-2.5052-8.8243-6.3493-11.0776-11.1272c-1.1278-2.3766-1.7742-4.9631-1.8663-7.5785l-0.0141-8.4138V1.5985h91.7985
					h23.3254c1.9749-0.0012,3.8246-0.0301,5.6792,0.1692c1.8544,0.1811,3.6925,0.5115,5.4904,0.9916
					c3.5887,0.9621,7.0217,2.5251,10.0135,4.6864c2.9894,2.1525,5.5423,4.91,7.2552,8.1147c0.8589,1.5985,1.4983,3.3049,1.89,5.0633
					c0.2005,0.8794,0.328,1.7731,0.3988,2.6708c0.0377,0.4483,0.0518,0.899,0.0565,1.3496l0.0024,1.4487v21.8237H30.0876V47.0855z"
					/>
				<path class="st6" d="M30.0876,46.3192h115.7539V26.0929v-1.4392c-0.0047-0.4129-0.0188-0.8258-0.0519-1.2363
					c-0.0661-0.8223-0.1817-1.6404-0.3657-2.4461c-0.3587-1.6115-0.9461-3.1799-1.739-4.657
					c-1.5808-2.9611-3.9638-5.544-6.7811-7.5731c-2.8194-2.0369-6.0755-3.5232-9.492-4.4382
					c-1.7106-0.4577-3.4637-0.7721-5.2332-0.9455c-0.8848-0.0866-1.7744-0.138-2.6661-0.1551l-2.8574-0.0065H93.3298H3.131v13.8375
					l0.0118,8.3559c0.0849,2.396,0.6748,4.7613,1.7129,6.9545c2.0739,4.4039,5.894,8.0262,10.3839,10.3974
					C19.7414,45.1337,24.9156,46.3186,30.0876,46.3192v0.8305c-5.297-0.0006-10.6034-1.2127-15.2373-3.6742
					c-4.6198-2.4414-8.579-6.1787-10.7448-10.7773c-1.0854-2.288-1.7036-4.7683-1.7932-7.2789l-0.0141-8.386V2.3653h91.0316h23.3254
					c1.9914-0.0011,3.7916-0.0295,5.6037,0.1653c1.8143,0.1775,3.6123,0.5001,5.3678,0.9697
					c3.5061,0.939,6.8541,2.4656,9.7633,4.5673c2.9068,2.0928,5.3772,4.7666,7.0264,7.8551
					c0.8281,1.5395,1.4415,3.1799,1.819,4.8681c0.1912,0.8434,0.3138,1.7011,0.3823,2.5624
					c0.0354,0.4305,0.0495,0.8635,0.0542,1.2959l0.0023,1.444v21.0568H30.0876V46.3192z"/>
				<path class="st7" d="M30.0876,45.5524H145.077V26.0929l-0.0024-1.4345c-0.0047-0.3951-0.0165-0.7898-0.0495-1.1827
					c-0.0637-0.7856-0.1746-1.5672-0.3492-2.3381c-0.3444-1.5407-0.906-3.0425-1.668-4.4611
					c-1.5172-2.8443-3.8176-5.3435-6.5522-7.3131c-2.7369-1.9778-5.9103-3.4277-9.2418-4.3202
					c-1.6682-0.4465-3.3812-0.7532-5.1106-0.9225c-0.8636-0.0849-1.7318-0.1351-2.6049-0.1516l-2.8431-0.0065H93.3298H3.8954
					v13.0707l0.0141,8.3283c0.0802,2.2904,0.6418,4.5502,1.6399,6.6542c1.9866,4.2251,5.6791,7.7407,10.0488,10.0483
					C19.9797,44.3928,25.0312,45.5524,30.0876,45.5524v0.8311c-5.1814-0.0006-10.365-1.1874-14.8786-3.5851
					C10.7094,40.4213,6.8778,36.79,4.7991,32.3708c-1.0429-2.2002-1.6351-4.5743-1.7201-6.9792l-0.0141-8.3584V3.1315h90.2649
					h23.3254l2.8596,0.0065c0.8919,0.0172,1.7838,0.0684,2.6708,0.1551c1.7719,0.1741,3.5297,0.489,5.2427,0.9473
					c3.4236,0.9173,6.6866,2.4066,9.5132,4.4487c2.8243,2.0338,5.2144,4.6239,6.7999,7.595c0.7951,1.4818,1.385,3.0555,1.746,4.6729
					c0.1841,0.8087,0.2997,1.6298,0.3657,2.455c0.0354,0.4123,0.0472,0.827,0.0519,1.2411l0.0024,1.4397v20.2906H30.0876V45.5524z"
					/>
			</g>
		</g>
		<linearGradient id="SVGID_3_" gradientUnits="userSpaceOnUse" x1="74.3836" y1="-9.9208" x2="74.3836" y2="30.9658">
			<stop  offset="0" style="stop-color:#FFFFFF"/>
			<stop  offset="0.135" style="stop-color:#E3E3E3"/>
			<stop  offset="0.4274" style="stop-color:#9B9B9B"/>
			<stop  offset="0.8514" style="stop-color:#292929"/>
			<stop  offset="1" style="stop-color:#000000"/>
		</linearGradient>
		<path class="st8" d="M118.8848,1.8097H1.7437v20.2274h145.2798C145.3553,10.6623,133.3765,1.8097,118.8848,1.8097z"/>
	</g>
</g>
<g>
</g>
<g>
</g>
<g>
</g>
<g>
</g>
<g>
</g>
<g>
</g>
<g>
</g>
<g>
</g>
<g>
</g>
<g>
</g>
<g>
</g>
<g>
</g>
<g>
</g>
<g>
</g>
<g>
</g>
</svg>
