<?xml version="1.0" encoding="utf-8"?>
<!-- Generator: Adobe Illustrator 23.0.1, SVG Export Plug-In . SVG Version: 6.00 Build 0)  -->
<svg version="1.1" id="圖層_1" xmlns="http://www.w3.org/2000/svg" xmlns:xlink="http://www.w3.org/1999/xlink" x="0px" y="0px"
	 viewBox="0 0 171.129 151.9028" style="enable-background:new 0 0 171.129 151.9028;" xml:space="preserve">
<style type="text/css">
	.st0{fill:#EFFFD7;}
	.st1{fill:#73BE00;}
</style>
<g>
	<path class="st0" d="M71.4481,65.3075c-4.6616,1.6755-9.0056,3.2718-13.3739,4.7986c-6.0959,2.1307-10.0234,6.6637-10.9217,12.6758
		c-1.4848,9.9373-1.9119,20.0327-2.7965,30.1978c27.7756,0,54.9722,0,82.6645,0c-0.9226-10.4096-1.4512-20.5195-2.8599-30.5052
		c-0.6962-4.9351-3.7775-9.201-8.6196-11.3134c-5.0627-2.2086-10.3369-3.9325-15.6211-5.9066
		c-3.7115,6.9018-7.1515,13.4817-10.8125,19.9363c-0.6514,1.1484-2.2963,2.5509-3.3471,2.4485
		c-1.3164-0.1283-2.9441-1.4319-3.6543-2.6754C78.4913,78.635,75.1298,72.1616,71.4481,65.3075z M10.6098,86.8176
		c5.971,43.7701,49.2062,72.6371,91.2617,63.343c39.7886-8.7931,59.1761-44.2115,59.1738-68.6107
		c-3.7311-1.7655-3.5059,1.0816-3.7549,3.2732c-3.7089,32.6386-30.8761,59.3828-63.8617,62.852
		c-32.9234,3.4626-64.6441-16.6418-75.3359-47.8685c-1.4715-4.2977-2.3933-8.7836-3.5696-13.1824
		c0.2961-0.1483,0.5922-0.2967,0.8883-0.445c3.2501,2.401,6.5002,4.8021,9.836,7.2665c0.8906-1.1627,1.5264-1.9928,2.3173-3.0255
		c-5.1819-3.9035-10.2691-7.7357-15.6994-11.8264C7.8738,83.918,4.011,89.0703,0,94.4204c1.3334,0.8162,2.2792,1.3951,3.2795,2.0074
		c1.3055-1.7274,2.4231-3.2164,3.552-4.6968C7.9517,90.2619,9.0832,88.8016,10.6098,86.8176z M161.2548,64.7201
		c-0.444-0.7803-0.6335-0.9808-0.6774-1.2093c-5.7356-29.8047-22.8331-50.3766-51.6443-59.5132
		C79.4631-5.3478,53.124,1.8682,31.2366,23.7993c-11.3385,11.3611-17.8742,25.3746-20.275,41.2365
		c-0.2975,1.9654-1.8341,5.4524,2.8584,4.8559c2.9857-41.5687,43.7046-71.9987,83.9257-64.941
		c39.2448,6.8864,58.1922,40.8569,58.8456,61.3626c-3.5241-2.37-6.9145-4.6502-10.5667-7.1064
		c-0.7454,1.1684-1.3449,2.1081-2.0603,3.2294c5.5031,3.7411,10.7405,7.3016,16.1373,10.9704
		c3.7425-5.4998,7.3222-10.7604,11.0275-16.2054c-1.1801-0.7896-2.122-1.4199-3.1625-2.1161
		C165.7244,58.304,163.6061,61.3448,161.2548,64.7201z M104.5837,45.2758c0.0972-10.7815-7.9614-19.1238-18.6098-19.265
		c-10.6866-0.1418-19.1667,8.0685-19.2681,18.6551c-0.1027,10.7235,8.0703,19.1597,18.656,19.2566
		C96.1307,64.0211,104.4878,55.914,104.5837,45.2758z"/>
	<path class="st1" d="M71.4481,65.3075c3.6817,6.8541,7.0432,13.3275,10.6578,19.6564c0.7102,1.2435,2.3379,2.5471,3.6543,2.6754
		c1.0509,0.1024,2.6957-1.3001,3.3471-2.4485c3.661-6.4546,7.101-13.0346,10.8125-19.9363
		c5.2842,1.9741,10.5584,3.698,15.6211,5.9066c4.8422,2.1124,7.9234,6.3783,8.6196,11.3134
		c1.4087,9.9857,1.9373,20.0956,2.8599,30.5052c-27.6923,0-54.8889,0-82.6645,0c0.8846-10.1651,1.3117-20.2605,2.7965-30.1978
		c0.8983-6.0121,4.8258-10.5451,10.9217-12.6758C62.4425,68.5792,66.7865,66.983,71.4481,65.3075z M101.7576,70.0952
		c-3.4759,6.428-6.9702,12.3802-9.9301,18.5873c-1.4013,2.9388-3.3539,3.1521-6.0348,3.1308
		c-2.7686-0.022-4.8725-0.1614-6.3459-3.2579c-2.9554-6.2115-6.4928-12.146-9.9116-18.418
		c-2.9621,1.0767-5.7465,2.3147-8.6535,3.098c-5.8367,1.5726-9.2235,5.6473-10.0851,11.1633
		c-1.2656,8.1025-1.6323,16.3454-2.4045,24.7742c3.8229,0,7.1862,0,10.7589,0c0.3198-4.5425,0.6225-8.8423,0.9253-13.1421
		c0.5119-0.1921,1.0238-0.3841,1.5356-0.5762c0.6814,1.0671,1.9155,2.1208,1.9418,3.2039c0.0833,3.423-0.2854,6.857-0.4912,10.4981
		c15.1599,0,30.1193,0,45.2837,0c-0.2925-4.4833-0.5658-8.6718-0.8505-13.0358c1.5762,0,2.5731,0,3.7968,0
		c0.3173,4.4809,0.6227,8.7918,0.9235,13.0403c3.769,0,7.0295,0,10.6444,0c-0.6019-7.5821-1.1754-14.8607-1.7634-22.1381
		c-0.0641-0.7939-0.0891-1.6227-0.3409-2.3645c-1.4235-4.1928-2.8843-8.4444-7.4463-10.3066
		C109.638,72.8529,105.8666,71.5979,101.7576,70.0952z"/>
	<path class="st1" d="M10.6098,86.8176c-1.5266,1.984-2.6582,3.4443-3.7783,4.9133c-1.1289,1.4804-2.2464,2.9694-3.552,4.6968
		C2.2792,95.8155,1.3334,95.2365,0,94.4204c4.011-5.3501,7.8738-10.5023,11.8654-15.8265
		c5.4303,4.0907,10.5175,7.9229,15.6994,11.8264c-0.791,1.0327-1.4268,1.8628-2.3173,3.0255
		c-3.3358-2.4644-6.5859-4.8654-9.836-7.2665c-0.2961,0.1483-0.5922,0.2967-0.8883,0.445
		c1.1763,4.3988,2.0981,8.8847,3.5696,13.1824c10.6918,31.2267,42.4126,51.3311,75.3359,47.8685
		c32.9856-3.4692,60.1527-30.2134,63.8617-62.852c0.2491-2.1916,0.0238-5.0387,3.7549-3.2732
		c0.0023,24.3992-19.3852,59.8176-59.1738,68.6107C59.816,159.4547,16.5809,130.5876,10.6098,86.8176z"/>
	<path class="st1" d="M161.2548,64.7201c2.3513-3.3754,4.4695-6.4161,6.7117-9.6349c1.0405,0.6962,1.9824,1.3265,3.1625,2.1161
		c-3.7052,5.445-7.285,10.7056-11.0275,16.2054c-5.3968-3.6688-10.6342-7.2293-16.1373-10.9704
		c0.7154-1.1213,1.3149-2.061,2.0603-3.2294c3.6521,2.4562,7.0426,4.7363,10.5667,7.1064
		c-0.6534-20.5057-19.6008-54.4763-58.8456-61.3626c-40.221-7.0577-80.9399,23.3723-83.9257,64.941
		c-4.6925,0.5965-3.1559-2.8904-2.8584-4.8559c2.4009-15.8619,8.9366-29.8753,20.275-41.2365
		C53.124,1.8682,79.4631-5.3478,108.9331,3.9977c28.8112,9.1366,45.9086,29.7084,51.6443,59.5132
		C160.6214,63.7394,160.8108,63.9399,161.2548,64.7201z"/>
	<path class="st1" d="M104.5837,45.2758c-0.0959,10.6383-8.453,18.7453-19.2219,18.6467
		c-10.5858-0.0969-18.7588-8.5331-18.656-19.2566c0.1014-10.5866,8.5815-18.7968,19.2681-18.6551
		C96.6224,26.152,104.6809,34.4943,104.5837,45.2758z M85.6445,60.1711c8.2494,0.0443,15.3789-7.0542,15.3388-15.2721
		c-0.0397-8.1331-7.3606-15.3601-15.4548-15.2565c-8.09,0.1035-14.9304,7.0308-14.9809,15.1714
		C70.495,53.2764,77.2286,60.126,85.6445,60.1711z"/>
</g>
<g>
</g>
<g>
</g>
<g>
</g>
<g>
</g>
<g>
</g>
<g>
</g>
<g>
</g>
<g>
</g>
<g>
</g>
<g>
</g>
<g>
</g>
<g>
</g>
<g>
</g>
<g>
</g>
<g>
</g>
</svg>
