<?xml version="1.0" encoding="utf-8"?>
<!-- Generator: Adobe Illustrator 23.0.1, SVG Export Plug-In . SVG Version: 6.00 Build 0)  -->
<svg version="1.1" id="圖層_1" xmlns="http://www.w3.org/2000/svg" xmlns:xlink="http://www.w3.org/1999/xlink" x="0px" y="0px"
	 viewBox="0 0 26 19.8" style="enable-background:new 0 0 26 19.8;" xml:space="preserve">
<style type="text/css">
	.st0{fill:#009100;}
</style>
<g>
	<path class="st0" d="M24.2,3.6H1.8C0.8,3.6,0,2.8,0,1.8v0C0,0.8,0.8,0,1.8,0l22.4,0c1,0,1.8,0.8,1.8,1.8v0
		C26,2.8,25.2,3.6,24.2,3.6z"/>
	<path class="st0" d="M24.2,11.7H1.8c-1,0-1.8-0.8-1.8-1.8v0c0-1,0.8-1.8,1.8-1.8h22.4c1,0,1.8,0.8,1.8,1.8v0
		C26,10.9,25.2,11.7,24.2,11.7z"/>
	<path class="st0" d="M24.2,19.8H1.8C0.8,19.8,0,19,0,18v0c0-1,0.8-1.8,1.8-1.8h22.4c1,0,1.8,0.8,1.8,1.8v0
		C26,19,25.2,19.8,24.2,19.8z"/>
</g>
<g>
</g>
<g>
</g>
<g>
</g>
<g>
</g>
<g>
</g>
<g>
</g>
<g>
</g>
<g>
</g>
<g>
</g>
<g>
</g>
<g>
</g>
<g>
</g>
<g>
</g>
<g>
</g>
<g>
</g>
</svg>
