<?xml version="1.0" encoding="utf-8"?>
<!-- Generator: Adobe Illustrator 23.0.1, SVG Export Plug-In . SVG Version: 6.00 Build 0)  -->
<svg version="1.1" id="圖層_1" xmlns="http://www.w3.org/2000/svg" xmlns:xlink="http://www.w3.org/1999/xlink" x="0px" y="0px"
	 viewBox="0 0 40.7 40.7" style="enable-background:new 0 0 40.7 40.7;" xml:space="preserve">
<style type="text/css">
	.st0{fill:#006030;}
</style>
<g>
	<g>
		<g>
			<path class="st0" d="M11.8,27.7l8.2-16.2h1l9.2,16.2h-2.7l-6.8-12.2h-0.1l-6,12.2H11.8z"/>
		</g>
	</g>
	<g>
		<path class="st0" d="M20.3,40.7C9.1,40.7,0,31.5,0,20.3C0,9.1,9.1,0,20.3,0s20.3,9.1,20.3,20.3C40.7,31.5,31.5,40.7,20.3,40.7z
			 M20.3,2C10.2,2,2,10.2,2,20.3s8.2,18.3,18.3,18.3c10.1,0,18.3-8.2,18.3-18.3S30.4,2,20.3,2z"/>
	</g>
</g>
<g>
</g>
<g>
</g>
<g>
</g>
<g>
</g>
<g>
</g>
<g>
</g>
<g>
</g>
<g>
</g>
<g>
</g>
<g>
</g>
<g>
</g>
<g>
</g>
<g>
</g>
<g>
</g>
<g>
</g>
</svg>
