<?xml version="1.0" encoding="utf-8"?>
<!-- Generator: Adobe Illustrator 23.0.1, SVG Export Plug-In . SVG Version: 6.00 Build 0)  -->
<svg version="1.1" id="圖層_1" xmlns="http://www.w3.org/2000/svg" xmlns:xlink="http://www.w3.org/1999/xlink" x="0px" y="0px"
	 viewBox="0 0 44.293 40.9499" style="enable-background:new 0 0 44.293 40.9499;" xml:space="preserve">
<path d="M30.71,22.1052c-1.7453,0.0284-2.9738-0.3154-4.1776-0.755c-0.372-0.1358-0.6041-0.077-0.8891,0.2091
	C20.469,26.7535,15.279,31.932,10.0999,37.1214c-0.9955,0.9975-2.1298,1.4524-3.5243,1.0221
	c-2.1101-0.6511-2.9399-3.2546-1.5962-5.0064c0.1856-0.2419,0.3964-0.4668,0.6123-0.6828
	c5.1443-5.1478,10.2878-10.2964,15.4444-15.4318c0.3137-0.3125,0.3828-0.5695,0.2232-0.9804
	c-1.0502-2.7047-1.0073-5.3842,0.2881-8.0026c1.8351-3.7091,5.9094-5.8662,9.9613-5.3079c0.6655,0.0917,1.1568,0.4105,1.3965,1.036
	c0.2482,0.6477,0.1002,1.2473-0.3799,1.7416c-0.7279,0.7493-1.4847,1.4707-2.209,2.2235c-0.9586,0.9964-1.2757,2.1814-0.783,3.4798
	c0.473,1.2464,1.4319,1.9628,2.7756,2.0859c1.0339,0.0948,1.9007-0.3004,2.6279-1.0202c0.6913-0.6843,1.3833-1.3682,2.0641-2.0629
	c0.5116-0.522,1.1137-0.7505,1.8125-0.5079c0.7,0.243,1.0255,0.7932,1.0955,1.5251c0.3757,3.9267-1.1142,6.9826-4.3082,9.2383
	C34.005,21.5978,32.198,22.0656,30.71,22.1052z"/>
<g>
</g>
<g>
</g>
<g>
</g>
<g>
</g>
<g>
</g>
<g>
</g>
<g>
</g>
<g>
</g>
<g>
</g>
<g>
</g>
<g>
</g>
<g>
</g>
<g>
</g>
<g>
</g>
<g>
</g>
</svg>
