<?xml version="1.0" encoding="utf-8"?>
<!-- Generator: Adobe Illustrator 23.0.1, SVG Export Plug-In . SVG Version: 6.00 Build 0)  -->
<svg version="1.1" id="圖層_1" xmlns="http://www.w3.org/2000/svg" xmlns:xlink="http://www.w3.org/1999/xlink" x="0px" y="0px"
	 viewBox="0 0 62 62" style="enable-background:new 0 0 62 62;" xml:space="preserve">
<style type="text/css">
	.st0{fill:#9FA0A0;}
</style>
<g>
	<path class="st0" d="M30.3853,35.0953c0,4.4444,0,8.8467,0,13.221c-0.1059,0.0484-0.1468,0.0814-0.1897,0.0843
		c-0.212,0.0145-0.4245,0.0222-0.6369,0.0304c-3.9614,0.153-7.8869,0.5775-11.6097,2.0225
		c-1.2124,0.4706-2.3328,1.2185-3.4233,1.9473c-0.5992,0.4005-0.9878,1.0547-0.9772,1.8797c11.902,0,23.7533,0,35.6436,0
		c-0.0288-0.8508-0.4059-1.5101-1.0143-1.913c-1.0745-0.7117-2.176-1.4438-3.3674-1.9067
		c-3.6998-1.4375-7.601-1.8649-11.5377-2.0286c-0.249-0.0103-0.4976-0.0296-0.7735-0.0464c0-4.4725,0-8.8594,0-13.2871
		c0.495-0.0277,0.9334-0.0522,1.4533-0.0812c0-0.2919,0-0.5445,0-0.7971c0.0001-2.0322,0.0175-4.0646-0.0119-6.0964
		c-0.0074-0.5117,0.1372-0.8108,0.5964-1.0623c1.5128-0.8284,3.0006-1.7024,4.4969-2.5609
		c0.8124-0.4661,1.6224-0.9364,2.4845-1.4342c-1.9174-2.8101-3.7869-5.5498-5.692-8.3418
		c-8.4885,6.8195-16.8994,13.5766-25.3326,20.3517c0.9806,1.4255,1.9126,2.7805,2.8633,4.1625
		c5.1951-2.9991,10.3236-5.9597,15.609-9.0109c0,1.7515,0,3.2549,0,4.7937C29.4714,35.048,29.9111,35.0708,30.3853,35.0953z
		 M51.5059,15.3279c-0.0032-3.5492-2.3771-6.5369-5.8787-7.3986c-3.3318-0.82-6.8825,0.8204-8.4816,3.9151
		c-0.1994,0.3859-0.3521,0.7182-0.0414,1.1677c2.1761,3.1481,4.3302,6.3115,6.4704,9.4841c0.2538,0.3762,0.539,0.4457,0.9479,0.4253
		C48.3458,22.7302,51.5095,19.2973,51.5059,15.3279z"/>
	<path class="st0" d="M30.3853,35.0953c-0.4742-0.0246-0.9139-0.0474-1.4189-0.0735c0-1.5388,0-3.0422,0-4.7937
		c-5.2854,3.0512-10.4139,6.0118-15.609,9.0109c-0.9507-1.382-1.8827-2.737-2.8633-4.1625
		c8.4332-6.7751,16.8441-13.5322,25.3326-20.3517c1.9051,2.792,3.7745,5.5317,5.692,8.3418
		c-0.8621,0.4978-1.6721,0.9681-2.4845,1.4342c-1.4963,0.8585-2.9841,1.7325-4.4969,2.5609
		c-0.4592,0.2515-0.6038,0.5506-0.5964,1.0623c0.0294,2.0318,0.0119,4.0642,0.0119,6.0964c0,0.2526,0,0.5053,0,0.7971
		c-0.52,0.0291-0.9584,0.0536-1.4533,0.0812c0,4.4277,0,8.8146,0,13.2871c0.2759,0.0168,0.5245,0.0361,0.7735,0.0464
		c3.9368,0.1636,7.8379,0.591,11.5377,2.0286c1.1914,0.4629,2.2929,1.195,3.3674,1.9067c0.6083,0.4029,0.9855,1.0622,1.0143,1.913
		c-11.8903,0-23.7416,0-35.6436,0c-0.0107-0.825,0.3779-1.4792,0.9772-1.8797c1.0905-0.7288,2.2109-1.4767,3.4233-1.9473
		c3.7228-1.445,7.6483-1.8695,11.6097-2.0225c0.2124-0.0082,0.4249-0.0159,0.6369-0.0304c0.0429-0.0029,0.0837-0.0359,0.1897-0.0843
		C30.3853,43.942,30.3853,39.5398,30.3853,35.0953z"/>
	<path class="st0" d="M51.5059,15.3279c0.0036,3.9694-3.1601,7.4023-6.9833,7.5935c-0.4089,0.0205-0.6941-0.049-0.9479-0.4253
		c-2.1402-3.1727-4.2944-6.336-6.4704-9.4841c-0.3108-0.4496-0.158-0.7819,0.0414-1.1677c1.5991-3.0946,5.1498-4.7351,8.4816-3.9151
		C49.1288,8.7911,51.5027,11.7788,51.5059,15.3279z"/>
</g>
</svg>
