<?xml version="1.0" encoding="utf-8"?>
<!-- Generator: Adobe Illustrator 23.0.1, SVG Export Plug-In . SVG Version: 6.00 Build 0)  -->
<svg version="1.1" id="圖層_1" xmlns="http://www.w3.org/2000/svg" xmlns:xlink="http://www.w3.org/1999/xlink" x="0px" y="0px"
	 viewBox="0 0 44.293 40.9499" style="enable-background:new 0 0 44.293 40.9499;" xml:space="preserve">
<g>
	<g>
		<g>
			<polygon points="22.5026,11.2319 15.6584,11.2377 15.6383,7.7391 5.5824,14.6872 15.6383,22.2509 15.6519,18.7485 
				22.5026,18.7547 			"/>
			<polygon points="15.6383,7.7391 16.2587,6.0968 4.3808,14.6184 5.5824,14.6872 			"/>
			<polygon points="22.5026,18.7547 15.6519,18.7485 16.2761,19.5177 23.1719,19.525 			"/>
			<polygon points="22.5026,11.2319 23.1719,10.4793 16.2837,10.4862 15.6584,11.2377 			"/>
			<polygon points="15.6383,22.2509 5.5824,14.6872 4.3808,14.6184 16.2587,23.8934 			"/>
			<polygon points="22.5026,11.2319 22.5026,18.7547 23.1719,19.525 23.1719,10.4793 			"/>
			<polygon points="15.6519,18.7485 15.6383,22.2509 16.2587,23.8934 16.2761,19.5177 			"/>
			<polygon points="16.2837,10.4862 16.2587,6.0968 15.6383,7.7391 15.6584,11.2377 			"/>
		</g>
		<g>
			<polygon points="24.9341,11.2355 24.9341,18.7506 27.779,18.7547 27.779,11.2319 			"/>
			<polygon points="24.2723,19.5196 28.4484,19.525 27.779,18.7547 24.9341,18.7506 			"/>
			<polygon points="24.2723,10.4845 24.9341,11.2355 27.779,11.2319 28.4484,10.4793 			"/>
			<polygon points="27.779,11.2319 27.779,18.7547 28.4484,19.525 28.4484,10.4793 			"/>
			<polygon points="24.9477,11.2319 24.9477,18.7547 24.2777,19.525 24.2777,10.4793 			"/>
		</g>
		<g>
			<polygon points="30.285,11.2355 30.285,18.7506 32.5221,18.7547 32.5221,11.2319 			"/>
			<polygon points="29.6249,19.5196 33.192,19.525 32.5221,18.7547 30.285,18.7506 			"/>
			<polygon points="29.6249,10.4845 30.285,11.2355 32.5221,11.2319 33.192,10.4793 			"/>
			<polygon points="32.5221,11.2319 32.5221,18.7547 33.192,19.525 33.192,10.4793 			"/>
			<polygon points="30.2991,11.2319 30.2991,18.7547 29.6303,19.525 29.6303,10.4793 			"/>
		</g>
		<g>
			<polygon points="35.0292,11.2355 35.0292,18.7506 36.3537,18.7547 36.3537,11.2319 			"/>
			<polygon points="34.368,19.5196 37.0219,19.525 36.3537,18.7547 35.0537,18.7506 			"/>
			<polygon points="34.368,10.4845 35.0292,11.2355 36.3537,11.2319 37.0219,10.4793 			"/>
			<polygon points="36.3537,11.2319 36.3537,18.7547 37.0219,19.525 37.0219,10.4793 			"/>
			<polygon points="35.0433,11.2319 35.0433,18.7547 34.374,19.525 34.374,10.4793 			"/>
		</g>
		<g>
			<polygon points="38.6785,11.2355 38.6785,18.7506 39.2428,18.7547 39.2428,11.2319 			"/>
			<polygon points="38.0167,19.5196 39.9121,19.525 39.2428,18.7547 38.6785,18.7506 			"/>
			<polygon points="38.0167,10.4845 38.6785,11.2355 39.2428,11.2319 39.9121,10.4793 			"/>
			<polygon points="39.2428,11.2319 39.2428,18.7547 39.9121,19.525 39.9121,10.4793 			"/>
			<polygon points="38.6915,11.2319 38.6915,18.7547 38.0227,19.525 38.0227,10.4793 			"/>
		</g>
	</g>
	<g>
		<g>
			<polygon points="21.8007,23.468 27.9537,23.4729 27.9722,20.327 37.0655,26.575 27.9722,33.376 27.9597,30.2268 21.8007,30.2314 
							"/>
			<polygon points="27.9722,20.327 27.415,18.8512 38.1463,26.513 37.0655,26.575 			"/>
			<polygon points="21.8007,30.2314 27.9597,30.2268 27.3992,30.9187 21.1983,30.925 			"/>
			<polygon points="21.8007,23.468 21.1983,22.7908 27.3916,22.7984 27.9537,23.4729 			"/>
			<polygon points="27.9722,33.376 37.0655,26.575 38.1463,26.513 27.415,34.8532 			"/>
			<polygon points="21.8007,23.468 21.8007,30.2314 21.1983,30.925 21.1983,22.7908 			"/>
			<polygon points="27.9597,30.2268 27.9722,33.376 27.415,34.8532 27.3992,30.9187 			"/>
			<polygon points="27.3916,22.7984 27.415,18.8512 27.9722,20.327 27.9537,23.4729 			"/>
		</g>
		<g>
			<polygon points="19.6147,23.4716 19.6147,30.2287 17.057,30.2314 17.057,23.468 			"/>
			<polygon points="20.209,30.9198 16.4546,30.925 17.057,30.2314 19.6147,30.2287 			"/>
			<polygon points="20.209,22.7963 19.6147,23.4716 17.057,23.468 16.4546,22.7908 			"/>
			<polygon points="17.057,23.468 17.057,30.2314 16.4546,30.925 16.4546,22.7908 			"/>
			<polygon points="19.6027,23.468 19.6027,30.2314 20.2041,30.925 20.2041,22.7908 			"/>
		</g>
		<g>
			<polygon points="14.8025,23.4716 14.8025,30.2287 12.7912,30.2314 12.7912,23.468 			"/>
			<polygon points="15.3973,30.9198 12.1888,30.925 12.7912,30.2314 14.8025,30.2287 			"/>
			<polygon points="15.3973,22.7963 14.8025,23.4716 12.7912,23.468 12.1888,22.7908 			"/>
			<polygon points="12.7912,23.468 12.7912,30.2314 12.1888,30.925 12.1888,22.7908 			"/>
			<polygon points="14.7905,23.468 14.7905,30.2314 15.3918,30.925 15.3918,22.7908 			"/>
		</g>
		<g>
			<polygon points="10.5377,23.4716 10.5377,30.2287 9.3465,30.2314 9.3465,23.468 			"/>
			<polygon points="11.132,30.9198 8.7452,30.925 9.3465,30.2314 10.5377,30.2287 			"/>
			<polygon points="11.132,22.7963 10.5377,23.4716 9.3465,23.468 8.7452,22.7908 			"/>
			<polygon points="9.3465,23.468 9.3465,30.2314 8.7452,30.925 8.7452,22.7908 			"/>
			<polygon points="10.5247,23.468 10.5247,30.2314 11.126,30.925 11.126,22.7908 			"/>
		</g>
		<g>
			<polygon points="7.2563,23.4716 7.2563,30.2287 6.7486,30.2314 6.7486,23.468 			"/>
			<polygon points="7.8511,30.9198 6.1467,30.925 6.7486,30.2314 7.2563,30.2287 			"/>
			<polygon points="7.8511,22.7963 7.3102,23.4716 6.7486,23.468 6.1467,22.7908 			"/>
			<polygon points="6.7486,23.468 6.7486,30.2314 6.1467,30.925 6.1467,22.7908 			"/>
			<polygon points="7.2443,23.468 7.2443,30.2314 7.8456,30.925 7.8456,22.7908 			"/>
		</g>
	</g>
</g>
<g>
</g>
<g>
</g>
<g>
</g>
<g>
</g>
<g>
</g>
<g>
</g>
<g>
</g>
<g>
</g>
<g>
</g>
<g>
</g>
<g>
</g>
<g>
</g>
<g>
</g>
<g>
</g>
<g>
</g>
</svg>
