<?xml version="1.0" encoding="utf-8"?>
<!-- Generator: Adobe Illustrator 23.0.1, SVG Export Plug-In . SVG Version: 6.00 Build 0)  -->
<svg version="1.1" id="圖層_1" xmlns="http://www.w3.org/2000/svg" xmlns:xlink="http://www.w3.org/1999/xlink" x="0px" y="0px"
	 viewBox="0 0 127.8 127.8" style="enable-background:new 0 0 127.8 127.8;" xml:space="preserve">
<style type="text/css">
	.st0{fill:#467500;}
	.st1{fill:#FFFFFF;}
	.st2{fill:#73BF00;}
</style>
<g>
	<g>
		<path class="st0" d="M82.2,76.5c-2.6,0.2-4.2,1.8-5.3,3.9c-1,1.9-0.4,3.7,1.4,5.5c7.9,7.9,15.8,15.8,23.7,23.6
			c0.6,0.6,1.6,1.1,2.5,1.3c1.8,0.4,3.3-0.3,4.6-1.6c2.6-2.6,2.7-5.1,0.1-7.7c-3.6-3.6-7.2-7.2-10.8-10.8
			c-4.2-4.2-8.3-8.3-12.5-12.5C84.9,77.3,83.8,76.4,82.2,76.5z M69.3,21.9c0-5.7,0-11.4,0-17c0-2.3-1.3-4.1-3.5-4.7
			C65-0.1,64.2,0,63.4,0c-3,0-4.9,1.9-4.9,4.9c0,11.2,0,22.4,0,33.6c0,2.6,1.5,4.5,4,4.8c4.3,0.6,6.9-1.5,6.8-5.6
			C69.1,32.5,69.3,27.2,69.3,21.9z M21.8,58.6c-5.7,0-11.4,0-17.2,0c-2,0-3.9,1.2-4.4,3.1C0,63-0.1,64.4,0.1,65.7
			c0.4,2.3,2.2,3.6,4.5,3.6c11.3,0,22.6,0,33.9,0c1.9,0,3.5-0.9,4.2-2.6c0.4-1,0.4-2.2,0.5-3.3c0.1-3-1.9-4.9-4.9-4.9
			C32.9,58.6,27.3,58.6,21.8,58.6z M106.2,58.6c-5.8,0-11.5,0-17.3,0c-0.6,0-1.2,0.1-1.7,0.3c-2.4,1-2.9,3-2.9,5.4
			c0.1,2.9,1.9,5,4.8,5c11.3,0,22.5,0,33.8,0c2.4,0,4.3-1.4,4.7-3.6c0.2-0.8,0.1-1.7,0.1-2.6c0-2.6-2-4.5-4.6-4.5
			C117.6,58.6,111.9,58.6,106.2,58.6z M69.3,105.9c0-5.7,0.1-11.3-0.1-17c0-1-0.6-2.2-1.3-3.1c-1.1-1.5-2.9-1.3-4.6-1.4
			c-2.4-0.1-4.9,1.8-4.9,4.8c0,11.3,0,22.5,0,33.8c0,2.1,0.9,3.7,3,4.5c0.7,0.3,1.6,0.2,2.3,0.3c3,0.4,5.5-1.7,5.5-4.9
			C69.2,117.2,69.3,111.6,69.3,105.9z M105.3,16.8c-1.9-0.1-3.1,1.1-4.3,2.3c-4.7,4.8-9.5,9.6-14.2,14.4c-2.9,2.9-5.9,5.8-8.7,8.7
			c-0.6,0.6-1.1,1.3-1.3,2.1c-0.8,2.3,0.3,4,1.9,5.5c2.3,2.2,4.8,2.2,7.1,0c7.9-7.9,15.8-15.7,23.6-23.6c1.5-1.5,2.1-3.3,1.3-5.3
			C109.8,18.7,107.2,16.8,105.3,16.8z M51.3,45.6c0.1-0.1,0.2-0.1,0.3-0.2c-0.6-1.1-0.9-2.3-1.7-3.1c-8-8.1-16-16.1-24.1-24.1
			c-0.5-0.5-1.3-1-2-1.2c-2.3-0.8-4,0.4-5.5,2c-2.1,2.2-2.1,4.8,0,6.9c7.9,7.9,15.8,15.8,23.7,23.7c1.5,1.5,3.3,2.1,5.3,1.3
			C49.4,50.1,51.3,47.6,51.3,45.6z M45.6,76.6c-1.3-0.1-2.4,0.5-3.3,1.4c-2.6,2.6-5.2,5.2-7.8,7.7c-4.5,4.5-8.9,8.9-13.4,13.4
			c-1,1-1.9,1.9-2.9,2.9c-1.9,1.8-2.1,5,0.5,7.3c2.4,2.2,4.9,2.4,7.1,0.3c7.9-7.9,15.7-15.8,23.7-23.6c1.6-1.6,2.2-4,1.5-5.4
			C50,78.7,47.9,76.3,45.6,76.6z"/>
		<path class="st0" d="M82.2,76.5c1.6-0.1,2.8,0.7,3.8,1.8c4.2,4.1,8.3,8.3,12.5,12.5c3.6,3.6,7.2,7.2,10.8,10.8
			c2.6,2.6,2.4,5.1-0.1,7.7c-1.3,1.3-2.8,2.1-4.6,1.6c-0.9-0.2-1.8-0.7-2.5-1.3c-7.9-7.8-15.8-15.7-23.7-23.6
			c-1.8-1.8-2.4-3.6-1.4-5.5C78,78.4,79.6,76.7,82.2,76.5z"/>
		<path class="st1" d="M69.3,21.9c0,5.3-0.1,10.6,0,15.9c0.1,4.1-2.5,6.2-6.8,5.6c-2.5-0.4-4-2.3-4-4.8c0-11.2,0-22.4,0-33.6
			c0-3,1.9-4.9,4.9-4.9c0.8,0,1.6-0.1,2.4,0.1c2.2,0.6,3.5,2.4,3.5,4.7C69.3,10.5,69.3,16.2,69.3,21.9z"/>
		<path class="st0" d="M21.8,58.6c5.6,0,11.1,0,16.7,0c3,0,4.9,1.9,4.9,4.9c0,1.1,0,2.3-0.5,3.3c-0.8,1.7-2.3,2.6-4.2,2.6
			c-11.3,0-22.6,0-33.9,0c-2.3,0-4.1-1.3-4.5-3.6C-0.1,64.4,0,63,0.3,61.6c0.4-1.9,2.3-3.1,4.4-3.1C10.3,58.6,16.1,58.6,21.8,58.6z"
			/>
		<path class="st0" d="M106.2,58.6c5.7,0,11.4,0,17,0c2.6,0,4.5,1.9,4.6,4.5c0,0.9,0.1,1.8-0.1,2.6c-0.5,2.2-2.3,3.6-4.7,3.6
			c-11.3,0-22.5,0-33.8,0c-2.9,0-4.7-2.1-4.8-5c-0.1-2.4,0.5-4.4,2.9-5.4c0.5-0.2,1.2-0.3,1.7-0.3C94.7,58.6,100.5,58.6,106.2,58.6z
			"/>
		<path class="st0" d="M69.3,105.9c0,5.6-0.1,11.3,0,16.9c0.1,3.2-2.5,5.3-5.5,4.9c-0.8-0.1-1.6,0-2.3-0.3c-2.1-0.7-3-2.4-3-4.5
			c0-11.3,0-22.5,0-33.8c0-3,2.5-4.9,4.9-4.8c1.7,0.1,3.5-0.1,4.6,1.4c0.6,0.9,1.2,2,1.3,3.1C69.3,94.6,69.3,100.3,69.3,105.9z"/>
		<path class="st0" d="M105.3,16.8c1.9,0,4.5,1.9,5.3,4c0.8,2.1,0.2,3.8-1.3,5.3c-7.9,7.9-15.8,15.7-23.6,23.6
			c-2.2,2.2-4.8,2.2-7.1,0c-1.6-1.5-2.8-3.2-1.9-5.5c0.3-0.8,0.8-1.5,1.3-2.1c2.9-2.9,5.8-5.8,8.7-8.7c4.8-4.8,9.5-9.6,14.2-14.4
			C102.3,17.9,103.5,16.7,105.3,16.8z"/>
		<path class="st2" d="M51.3,45.6c0,2-1.9,4.5-3.9,5.3c-2.1,0.9-3.8,0.3-5.3-1.3C34.1,41.8,26.2,33.9,18.3,26c-2.1-2.1-2-4.7,0-6.9
			c1.5-1.6,3.1-2.8,5.5-2c0.7,0.2,1.5,0.7,2,1.2c8.1,8,16.1,16,24.1,24.1c0.8,0.8,1.2,2.1,1.7,3.1C51.5,45.5,51.4,45.6,51.3,45.6z"
			/>
		<path class="st0" d="M45.6,76.6c2.2-0.2,4.4,2.2,5.3,4c0.8,1.4,0.2,3.8-1.5,5.4c-7.9,7.8-15.8,15.7-23.7,23.6
			c-2.1,2.1-4.7,1.9-7.1-0.3c-2.6-2.3-2.4-5.5-0.5-7.3c1-0.9,1.9-1.9,2.9-2.9c4.5-4.5,8.9-8.9,13.4-13.4c2.6-2.6,5.2-5.2,7.8-7.7
			C43.2,77,44.3,76.5,45.6,76.6z"/>
	</g>
</g>
<g>
</g>
<g>
</g>
<g>
</g>
<g>
</g>
<g>
</g>
<g>
</g>
<g>
</g>
<g>
</g>
<g>
</g>
<g>
</g>
<g>
</g>
<g>
</g>
<g>
</g>
<g>
</g>
<g>
</g>
</svg>
