<?xml version="1.0" encoding="utf-8"?>
<!-- Generator: Adobe Illustrator 23.0.1, SVG Export Plug-In . SVG Version: 6.00 Build 0)  -->
<svg version="1.1" id="圖層_1" xmlns="http://www.w3.org/2000/svg" xmlns:xlink="http://www.w3.org/1999/xlink" x="0px" y="0px"
	 viewBox="0 0 13.801 13.8626" style="enable-background:new 0 0 13.801 13.8626;" xml:space="preserve">
<g>
	<path d="M9.1185,13.8626c-0.1886-0.0744-0.2398-0.2117-0.236-0.4115c0.0122-0.654,0.0046-1.3083,0.0046-1.9975
		c-0.2214,0-0.4134,0-0.6054,0c-0.9647,0-1.93-0.0214-2.894,0.0044c-2.1451,0.0574-3.0228-1.2407-3.3528-2.8659
		C2.0106,8.4723,1.9964,8.3504,1.9784,8.2354C2.9621,9.142,4.176,9.3993,5.4556,9.4287c1.127,0.0259,2.2551,0.0054,3.4314,0.0054
		c0-0.2076,0-0.3977,0-0.5878c0-0.3797-0.0064-0.7596,0.0027-1.1391c0.0044-0.1839-0.079-0.4079,0.1566-0.5193
		C9.2936,7.0712,9.515,7.1318,9.7357,7.2858c0.7736,0.5395,1.5545,1.0685,2.3327,1.6015c0.4399,0.3013,0.8864,0.5935,1.3163,0.9084
		c0.1589,0.1165,0.2787,0.2864,0.4163,0.4319c0,0.1232,0,0.2464,0,0.3697c-0.161,0.1519-0.307,0.3246-0.4853,0.4525
		c-1.3133,0.9427-2.6331,1.8764-3.9508,2.8129C9.2828,13.8626,9.2007,13.8626,9.1185,13.8626z"/>
	<path d="M4.6825,0c0.2004,0.07,0.2576,0.2071,0.2529,0.419C4.9208,1.0745,4.9301,1.7306,4.9301,2.4262
		c0.1316,0.006,0.249,0.0157,0.3665,0.0161c1.1693,0.0031,2.3386-0.0014,3.5079,0.0082c1.2661,0.0104,2.1371,0.6383,2.6285,1.7785
		c0.1956,0.4538,0.2953,0.949,0.4072,1.4373c-0.6273-0.7175-1.4889-0.9019-2.3349-1.0935c-0.405-0.0918-0.8301-0.1225-1.2469-0.129
		C7.1629,4.4267,6.067,4.438,4.93,4.438c0,0.6144,0.0088,1.2055-0.0059,1.7961c-0.004,0.159-0.0514,0.4333-0.1274,0.4514
		c-0.199,0.0474-0.4733,0.0561-0.632-0.049C2.8497,5.765,1.5521,4.8668,0.2557,3.9674C0.1463,3.8915,0.0841,3.7475,0,3.6351
		C0,3.5324,0,3.4297,0,3.327c0.1529-0.1588,0.2864-0.3445,0.4621-0.4718C1.3484,2.2128,2.243,1.5818,3.1402,0.9547
		C3.6074,0.6281,4.0859,0.3177,4.5593,0C4.6003,0,4.6414,0,4.6825,0z"/>
</g>
<g>
</g>
<g>
</g>
<g>
</g>
<g>
</g>
<g>
</g>
<g>
</g>
<g>
</g>
<g>
</g>
<g>
</g>
<g>
</g>
<g>
</g>
<g>
</g>
<g>
</g>
<g>
</g>
<g>
</g>
</svg>
