<?xml version="1.0" encoding="utf-8"?>
<!-- Generator: Adobe Illustrator 23.0.1, SVG Export Plug-In . SVG Version: 6.00 Build 0)  -->
<svg version="1.1" id="圖層_1" xmlns="http://www.w3.org/2000/svg" xmlns:xlink="http://www.w3.org/1999/xlink" x="0px" y="0px"
	 viewBox="0 0 62 62" style="enable-background:new 0 0 62 62;" xml:space="preserve">
<style type="text/css">
	.st0{fill:#9FA0A0;}
</style>
<path class="st0" d="M50.232,16.5455h-7.1231v-3.5c0-1.5713-1.2773-2.8487-2.8496-2.8487c-1.5713,0-2.8506,1.2774-2.8506,2.8487v3.5
	H24.5894v-3.5c0-1.5713-1.2764-2.8487-2.8506-2.8487c-1.5703,0-2.8477,1.2774-2.8477,2.8487v3.5h-7.124
	c-1.1797,0-2.1338,0.958-2.1338,2.1377v30.9824c0,1.1797,0.9541,2.1377,2.1338,2.1377H50.232c1.1796,0,2.1347-0.958,2.1347-2.1377
	V18.6831C52.3667,17.5035,51.4116,16.5455,50.232,16.5455z M29.5747,26.1031v5.6982h-6.7666v-5.6982H29.5747z M32.4253,26.1031
	h6.7656v5.6982h-6.7656V26.1031z M19.9585,26.1031v5.6982h-6.0537v-5.6982H19.9585z M19.9585,34.6508v4.2725h-6.0537v-4.2725
	H19.9585z M22.8081,34.6508h6.7666v4.2725h-6.7666V34.6508z M29.5747,41.7719v5.7578h-6.7666v-5.7578H29.5747z M32.4253,41.7719
	h6.7656v5.7578h-6.7656V41.7719z M32.4253,38.9234v-4.2725h6.7656v4.2725H32.4253z M42.0405,34.6508h6.0538v4.2725h-6.0538V34.6508z
	 M42.0405,31.8013v-5.6982h6.0538v5.6982H42.0405z M13.9048,41.7719h6.0537v5.7578h-6.0537V41.7719z M42.0405,47.5298V41.772h6.0538
	v5.7578H42.0405z"/>
</svg>
