<?xml version="1.0" encoding="utf-8"?>
<!-- Generator: Adobe Illustrator 23.0.1, SVG Export Plug-In . SVG Version: 6.00 Build 0)  -->
<svg version="1.1" id="圖層_1" xmlns="http://www.w3.org/2000/svg" xmlns:xlink="http://www.w3.org/1999/xlink" x="0px" y="0px"
	 viewBox="0 0 44.293 40.9499" style="enable-background:new 0 0 44.293 40.9499;" xml:space="preserve">
<style type="text/css">
	.st0{fill:#FFFFFF;}
</style>
<g>
	<g>
		<path d="M38.5736,15.8391v-0.0204l-0.0012-0.0012c-0.0061-0.418-0.1418-0.8338-0.4157-1.1566L26.5262,0.9585
			c-0.2756-0.3249-0.6375-0.4924-1.0035-0.5084c-0.0012-0.0015-0.0023-0.0031-0.0038-0.0046H11.3991
			C8.2657,0.4517,5.7248,3.3652,5.7193,6.9582v27.0331c0.0055,3.5931,2.5465,6.5068,5.6798,6.5133h21.4946
			c3.1334-0.0065,5.6744-2.9201,5.6798-6.5133V15.8876C38.5739,15.8714,38.5736,15.8553,38.5736,15.8391z M32.8937,37.2479H11.3991
			c-1.5522-0.0032-2.837-1.476-2.8399-3.2566V6.9582c0.0029-1.7798,1.2877-3.2532,2.8399-3.2563h13.3276l11.007,12.9676v17.3218
			C35.7308,35.7719,34.446,37.2447,32.8937,37.2479z"/>
		<path d="M11.1911,18.6637v13.1984c0.0017,1.3638,1.0424,2.4922,2.2992,2.4944l0,0h17.4003
			c1.2565-0.0021,2.2969-1.1306,2.2989-2.4944l0,0V18.6637c-0.002-1.3633-1.0424-2.4922-2.2989-2.4942l0,0H13.4903
			C12.2336,16.1714,11.1929,17.3004,11.1911,18.6637L11.1911,18.6637z"/>
		<g>
			<rect x="11.1911" y="5.3944" width="3.0898" height="7.1314"/>
			<rect x="16.5009" y="5.3944" width="3.0901" height="7.1314"/>
			<rect x="21.8108" y="5.3944" width="3.0901" height="7.1314"/>
		</g>
	</g>
	<path class="st0" d="M15.2349,24.3289c0,0,3.8725,3.6857,5.4215,8.8811l1.6264-0.3109c0,0,1.7812-9.6507,6.893-15.1865
		l-0.5439-0.3967c0,0-5.5747,5.4145-7.5109,11.3204c0,0-2.4534-3.0483-5.2735-4.8323L15.2349,24.3289z"/>
</g>
<g>
</g>
<g>
</g>
<g>
</g>
<g>
</g>
<g>
</g>
<g>
</g>
<g>
</g>
<g>
</g>
<g>
</g>
<g>
</g>
<g>
</g>
<g>
</g>
<g>
</g>
<g>
</g>
<g>
</g>
</svg>
