<?xml version="1.0" encoding="utf-8"?>
<!-- Generator: Adobe Illustrator 23.0.1, SVG Export Plug-In . SVG Version: 6.00 Build 0)  -->
<svg version="1.1" id="圖層_1" xmlns="http://www.w3.org/2000/svg" xmlns:xlink="http://www.w3.org/1999/xlink" x="0px" y="0px"
	 viewBox="0 0 62 62" style="enable-background:new 0 0 62 62;" xml:space="preserve">
<style type="text/css">
	.st0{fill:#FFFFFF;}
</style>
<path class="st0" d="M35.159,37.3092c-0.0011,0-0.0022,0-0.0033,0c0-3.3707,0-6.7414,0-10.1122
	c0-0.0462,0.0001-0.0924-0.0002-0.1385c-0.01-1.6206-0.6315-2.9308-2.0466-3.7651c-2.7766-1.6371-6.1649,0.2857-6.249,3.5574
	c-0.0527,2.0534-0.0125,4.1092-0.0123,6.164c0.0006,4.779-0.0024,9.5581,0.0058,14.3371c0.0035,2.0153,1.034,3.5692,2.7283,4.1624
	c2.8026,0.9811,5.5446-0.9788,5.5706-4.0237C35.1814,44.097,35.159,40.703,35.159,37.3092z M35.1501,14.3493
	c-0.024-2.2704-1.9212-4.1403-4.1783-4.1182c-2.2651,0.0222-4.1397,1.9247-4.1189,4.1803c0.0208,2.2675,1.9201,4.1383,4.1795,4.117
	C33.3018,18.507,35.1739,16.6069,35.1501,14.3493z"/>
<g>
</g>
<g>
</g>
<g>
</g>
<g>
</g>
<g>
</g>
<g>
</g>
<g>
</g>
<g>
</g>
<g>
</g>
<g>
</g>
<g>
</g>
<g>
</g>
<g>
</g>
<g>
</g>
<g>
</g>
</svg>
