<?xml version="1.0" encoding="utf-8"?>
<!-- Generator: Adobe Illustrator 23.0.1, SVG Export Plug-In . SVG Version: 6.00 Build 0)  -->
<svg version="1.1" id="圖層_1" xmlns="http://www.w3.org/2000/svg" xmlns:xlink="http://www.w3.org/1999/xlink" x="0px" y="0px"
	 viewBox="0 0 62 62" style="enable-background:new 0 0 62 62;" xml:space="preserve">
<style type="text/css">
	.st0{fill:#FFFFFF;}
</style>
<g>
	<g>
		<g>
			<path class="st0" d="M26.2208,15.2791c-0.0588,0.1658-0.1105,0.3045-0.1574,0.4448c-0.5196,1.5552-1.057,3.1047-1.5544,4.667
				c-2.0686,6.4977-5.3466,12.2951-9.9827,17.3109c-0.1009,0.1092-0.1894,0.2299-0.2587,0.3146
				c3.2491,3.251,6.4721,6.4759,9.7202,9.726c0.6876-0.5998,1.3831-1.2327,2.106-1.8327c3.8094-3.1617,8.0142-5.6625,12.654-7.391
				c2.4887-0.9271,5.0259-1.724,7.541-2.5801c0.1463-0.0498,0.2913-0.1035,0.4363-0.1553
				C39.8733,28.9315,33.0674,22.1257,26.2208,15.2791z M53.7648,32.272c0.0097-0.887-0.4093-1.5627-1.0132-2.1662
				c-6.2832-6.2783-12.561-12.562-18.843-18.8415c-0.8172-0.8168-1.6146-1.6585-2.4836-2.4171
				c-1.088-0.9498-2.784-0.7753-3.7324,0.3096c-1.0334,1.1821-0.9135,2.7257,0.3155,3.9552
				c6.3224,6.3251,12.6457,12.6492,18.9705,18.9718c0.7635,0.7633,1.506,1.5519,2.3157,2.2635
				c0.853,0.7497,1.8636,0.8711,2.8942,0.3911C53.2198,34.2579,53.7236,33.4013,53.7648,32.272z M27.7558,48.1425
				c0.2726,0.2281,0.5058,0.3992,0.7112,0.5989c1.4535,1.4137,3.1931,1.708,5.0164,0.8029
				c3.3443-1.6602,6.6802-3.3376,10.0197-5.0074c0.9575-0.4788,1.6952-1.1736,2.1017-2.1787
				c0.4417-1.0924,0.408-2.1722-0.0982-3.2676c-0.8899,0.2978-1.7346,0.5804-2.5818,0.8639
				c0.435,1.0562,0.2703,1.6687-0.5883,2.1002c-3.363,1.6902-6.7301,3.3724-10.1003,5.0483c-0.72,0.358-1.258,0.2603-1.8223-0.3017
				c-0.1373-0.1368-0.22-0.3285-0.3382-0.5111C29.2444,46.954,28.5486,47.5095,27.7558,48.1425z M52.491,11.0376
				c-0.0899-0.6183-0.3927-1.1082-0.9088-1.3163c-0.5806-0.2341-1.1098-0.1205-1.5521,0.3186
				c-1.263,1.2541-2.5258,2.5085-3.7745,3.7767c-0.6056,0.615-0.6112,1.4447-0.0519,1.9961
				c0.5612,0.5531,1.3761,0.5366,1.9961-0.0747c1.2565-1.239,2.5097-2.4818,3.7366-3.7498
				C52.1842,11.7322,52.3093,11.3576,52.491,11.0376z M51.5964,21.5077c0.4564,0,0.913,0.0097,1.3691-0.0021
				c0.8139-0.021,1.4084-0.6106,1.4027-1.3759c-0.0056-0.7474-0.5893-1.339-1.3766-1.3539
				c-0.9124-0.0172-1.8258-0.0192-2.7381,0.0011c-0.7822,0.0175-1.3613,0.6249-1.3557,1.3737
				c0.0057,0.7519,0.583,1.3282,1.3752,1.354C50.7137,21.5189,51.1552,21.5071,51.5964,21.5077z"/>
			<path class="st0" d="M7.6318,41.501c0.2565-0.8389,0.6607-1.5684,1.4899-1.9725c1.0252-0.4997,2.0019-0.4057,2.916,0.2712
				c0.2066,0.153,0.3915,0.3376,0.5741,0.5201c3.0675,3.0647,6.1424,6.1221,9.1871,9.2094c0.3801,0.3854,0.6971,0.8972,0.8708,1.409
				c0.3746,1.1037-0.1358,2.335-1.1221,2.9831c-0.9693,0.637-2.2501,0.5899-3.1569-0.1312c-0.261-0.2075-0.5013-0.443-0.7377-0.6791
				c-2.8636-2.8598-5.7198-5.7271-8.5904-8.5798c-0.6205-0.6166-1.2065-1.2404-1.4308-2.1172
				C7.6318,42.1096,7.6318,41.8053,7.6318,41.501z"/>
			<path class="st0" d="M42.2303,7.6328c0.7886,0.3636,1.0664,0.9879,1.0136,1.8361c-0.0452,0.7259-0.0014,1.457-0.0118,2.1856
				c-0.0122,0.8504-0.586,1.4509-1.3684,1.4521c-0.7834,0.0012-1.3547-0.5986-1.3657-1.4521
				c-0.0094-0.7286,0.0337-1.4597-0.0116-2.1856c-0.0529-0.8483,0.225-1.4725,1.0135-1.8361
				C41.7434,7.6328,41.9868,7.6328,42.2303,7.6328z"/>
			<path class="st0" d="M26.2208,15.2791c6.8466,6.8466,13.6524,13.6525,20.5043,20.5043c-0.145,0.0517-0.29,0.1055-0.4363,0.1553
				c-2.5151,0.8561-5.0523,1.6529-7.541,2.5801c-4.6398,1.7285-8.8446,4.2293-12.654,7.391c-0.7229,0.6-1.4185,1.2329-2.106,1.8327
				c-3.2481-3.25-6.4711-6.4749-9.7202-9.726c0.0693-0.0847,0.1578-0.2054,0.2587-0.3146
				c4.6362-5.0158,7.9141-10.8132,9.9827-17.3109c0.4974-1.5623,1.0347-3.1118,1.5544-4.667
				C26.1104,15.5836,26.1621,15.4448,26.2208,15.2791z"/>
			<path class="st0" d="M53.7648,32.272c-0.0412,1.1293-0.545,1.9859-1.5764,2.4663c-1.0306,0.48-2.0412,0.3586-2.8942-0.3911
				c-0.8096-0.7116-1.5521-1.5002-2.3157-2.2635c-6.3248-6.3227-12.6481-12.6467-18.9705-18.9718
				c-1.229-1.2295-1.3489-2.7731-0.3155-3.9552c0.9484-1.0849,2.6444-1.2594,3.7324-0.3096
				c0.869,0.7586,1.6665,1.6002,2.4836,2.4171c6.282,6.2795,12.5598,12.5632,18.843,18.8415
				C53.3555,30.7093,53.7745,31.3851,53.7648,32.272z"/>
			<path class="st0" d="M27.7558,48.1425c0.7928-0.633,1.4886-1.1885,2.3199-1.8522c0.1182,0.1826,0.2009,0.3743,0.3382,0.5111
				c0.5642,0.562,1.1022,0.6597,1.8223,0.3017c3.3702-1.6759,6.7372-3.3581,10.1003-5.0483
				c0.8586-0.4315,1.0233-1.0441,0.5883-2.1002c0.8472-0.2835,1.6919-0.5662,2.5818-0.8639
				c0.5062,1.0954,0.5399,2.1751,0.0982,3.2676c-0.4064,1.0052-1.1442,1.7-2.1017,2.1787
				c-3.3395,1.6699-6.6754,3.3472-10.0197,5.0074c-1.8233,0.9051-3.5629,0.6108-5.0164-0.8029
				C28.2616,48.5417,28.0284,48.3706,27.7558,48.1425z"/>
			<path class="st0" d="M52.491,11.0376c-0.1817,0.3199-0.3068,0.6945-0.5546,0.9506c-1.2269,1.268-2.4802,2.5108-3.7366,3.7498
				c-0.6199,0.6113-1.4349,0.6279-1.9961,0.0747c-0.5594-0.5514-0.5537-1.381,0.0519-1.9961
				c1.2487-1.2682,2.5115-2.5226,3.7745-3.7767c0.4423-0.4391,0.9715-0.5527,1.5521-0.3186
				C52.0983,9.9294,52.4011,10.4193,52.491,11.0376z"/>
			<path class="st0" d="M51.5964,21.5074c-0.4412-0.0003-0.8827,0.0115-1.3234-0.0028c-0.7922-0.0257-1.3695-0.602-1.3752-1.354
				c-0.0056-0.7488,0.5735-1.3562,1.3557-1.3737c0.9123-0.0204,1.8257-0.0184,2.7381-0.0011
				c0.7873,0.0149,1.371,0.6065,1.3766,1.3539c0.0057,0.7653-0.5888,1.3549-1.4027,1.3759
				C52.5094,21.5173,52.0528,21.5077,51.5964,21.5074z"/>
		</g>
	</g>
</g>
<g>
</g>
<g>
</g>
<g>
</g>
<g>
</g>
<g>
</g>
<g>
</g>
<g>
</g>
<g>
</g>
<g>
</g>
<g>
</g>
<g>
</g>
<g>
</g>
<g>
</g>
<g>
</g>
<g>
</g>
</svg>
