<?xml version="1.0" encoding="utf-8"?>
<!-- Generator: Adobe Illustrator 23.0.1, SVG Export Plug-In . SVG Version: 6.00 Build 0)  -->
<svg version="1.1" id="圖層_1" xmlns="http://www.w3.org/2000/svg" xmlns:xlink="http://www.w3.org/1999/xlink" x="0px" y="0px"
	 viewBox="0 0 46.5576 46.5612" style="enable-background:new 0 0 46.5576 46.5612;" xml:space="preserve">
<style type="text/css">
	.st0{fill:#009100;}
</style>
<g>
	<path class="st0" d="M0,25.2524c0-1.2413,0-2.4826,0-3.7239c0.0657-0.3004,0.1597-0.5976,0.193-0.9015
		C1.7079,6.8037,15.3429-2.708,28.8428,0.6928c10.7014,2.6959,17.2756,11.8942,17.6917,21.5123
		c0.5138,11.8761-7.586,21.1159-17.2647,23.58c-1.1939,0.304-2.4104,0.5196-3.6164,0.7761c-1.5861,0-3.1722,0-4.7583,0
		c-0.1906-0.0615-0.3771-0.1547-0.5724-0.18c-9.3321-1.2088-16.9944-7.8458-19.4588-16.9114
		C0.4882,28.0878,0.2837,26.6593,0,25.2524z M39.4844,37.8574c7.341-7.853,8.0413-21.5158-1.0854-30.2907
		C29.513-0.9766,15.3815-0.4871,7.1305,8.6626c-8.633,9.5733-6.4093,22.6713,0.0093,29.1645
		c0.088-0.1499,0.1868-0.2838,0.251-0.4326c1.1148-2.5836,3.0314-4.4074,5.4855-5.6811c4.2657-2.2138,8.8327-2.8793,13.5437-2.2275
		C31.9826,30.2556,36.916,32.1658,39.4844,37.8574z"/>
	<path class="st0" d="M34.1942,16.7602c-0.0036,5.9383-4.8513,10.811-10.7589,10.8145C17.2002,27.5784,12.379,22.8,12.3931,16.6305
		c0.0138-6.0343,4.9353-10.8492,11.0802-10.8403C29.3863,5.7989,34.1979,10.7222,34.1942,16.7602z"/>
</g>
<g>
</g>
<g>
</g>
<g>
</g>
<g>
</g>
<g>
</g>
<g>
</g>
<g>
</g>
<g>
</g>
<g>
</g>
<g>
</g>
<g>
</g>
<g>
</g>
<g>
</g>
<g>
</g>
<g>
</g>
</svg>
