<?xml version="1.0" encoding="utf-8"?>
<!-- Generator: Adobe Illustrator 23.0.1, SVG Export Plug-In . SVG Version: 6.00 Build 0)  -->
<svg version="1.1" id="圖層_1" xmlns="http://www.w3.org/2000/svg" xmlns:xlink="http://www.w3.org/1999/xlink" x="0px" y="0px"
	 viewBox="0 0 20.9353 20.9347" style="enable-background:new 0 0 20.9353 20.9347;" xml:space="preserve">
<style type="text/css">
	.st0{fill:#467500;}
</style>
<path class="st0" d="M0.8302,14.5392C0.277,13.2456,0,11.8889,0,10.4673c0-1.4209,0.277-2.7782,0.8302-4.0718
	c0.5535-1.293,1.2961-2.4057,2.2279-3.3374c0.9323-0.9323,2.0447-1.6747,3.3377-2.2282C7.6891,0.2765,9.0464,0,10.4676,0
	c1.4215,0,2.7785,0.2765,4.0718,0.8299c1.293,0.5535,2.4057,1.2958,3.3377,2.2282c0.9321,0.9318,1.6747,2.0445,2.2279,3.3374
	c0.5535,1.2936,0.8302,2.6508,0.8302,4.0718c0,1.4216-0.2767,2.7783-0.8302,4.0718c-0.5532,1.293-1.2958,2.4057-2.2279,3.3374
	c-0.9321,0.9323-2.0447,1.6752-3.3377,2.2282c-1.2933,0.5535-2.6503,0.8299-4.0718,0.8299c-1.4212,0-2.7785-0.2765-4.0718-0.8299
	c-1.293-0.553-2.4054-1.2958-3.3377-2.2282C2.1264,16.9449,1.3837,15.8322,0.8302,14.5392z M5.3824,5.3819
	C3.9728,6.7921,3.268,8.4872,3.268,10.4673c0,1.9807,0.7048,3.6759,2.1144,5.0855c1.4096,1.4096,3.1048,2.1144,5.0852,2.1144
	c1.9807,0,3.6759-0.7048,5.0852-2.1144c1.4099-1.4096,2.1144-3.1048,2.1144-5.0855c0-1.9801-0.7045-3.6753-2.1144-5.0855
	c-1.4094-1.4091-3.1045-2.1144-5.0852-2.1144C8.4872,3.2675,6.792,3.9728,5.3824,5.3819z M10.4676,8.7198V6.0986l5.2425,4.3687
	l-5.2425,4.3687v-2.6212H5.2251v-3.495H10.4676z"/>
<g>
</g>
<g>
</g>
<g>
</g>
<g>
</g>
<g>
</g>
<g>
</g>
<g>
</g>
<g>
</g>
<g>
</g>
<g>
</g>
<g>
</g>
<g>
</g>
<g>
</g>
<g>
</g>
<g>
</g>
</svg>
