<?xml version="1.0" encoding="utf-8"?>
<!-- Generator: Adobe Illustrator 23.0.1, SVG Export Plug-In . SVG Version: 6.00 Build 0)  -->
<svg version="1.1" id="圖層_1" xmlns="http://www.w3.org/2000/svg" xmlns:xlink="http://www.w3.org/1999/xlink" x="0px" y="0px"
	 viewBox="0 0 44.293 40.9499" style="enable-background:new 0 0 44.293 40.9499;" xml:space="preserve">
<g>
	<g>
		<path d="M19.3611,33.3011c-2.506-0.5412-4.7432-1.795-6.4949-3.5456c-2.3775-2.3789-3.8435-5.6517-3.8441-9.2803
			c0.0006-3.6286,1.4666-6.9015,3.8441-9.2805c1.7517-1.7506,3.9889-3.0042,6.4949-3.5454V2.619
			c-8.6578,1.3403-15.2842,8.823-15.2853,17.8562c0.0011,9.0334,6.6274,16.5161,15.2853,17.8558V33.3011z"/>
		<path d="M24.3554,2.5439V7.539c2.7392,0.4638,5.1869,1.772,7.0717,3.6557c2.3773,2.3789,3.8433,5.6518,3.844,9.2805
			c-0.0007,3.6287-1.4667,6.9014-3.844,9.2803c-1.8848,1.8837-4.3325,3.1917-7.0717,3.6555v4.9949
			c8.9377-1.0903,15.8607-8.6984,15.8617-17.9308C40.2161,11.243,33.2931,3.6348,24.3554,2.5439z"/>
	</g>
	<g>
		<path d="M27.9819,20.4921c0.008,0.2162-0.0885,0.4344-0.3325,0.5763c-2.832,1.636-5.6643,3.2701-8.4965,4.9058
			c-0.4515,0.26-1.0351-0.071-1.0351-0.5941c0-3.2701,0-6.5404,0-9.8094c0-0.5241,0.5837-0.8553,1.0351-0.5947
			c2.8322,1.6344,5.6645,3.2692,8.4965,4.9048c0.244,0.1425,0.3404,0.3604,0.3325,0.577
			C27.9819,20.469,27.9819,20.4806,27.9819,20.4921z"/>
	</g>
</g>
<g>
</g>
<g>
</g>
<g>
</g>
<g>
</g>
<g>
</g>
<g>
</g>
<g>
</g>
<g>
</g>
<g>
</g>
<g>
</g>
<g>
</g>
<g>
</g>
<g>
</g>
<g>
</g>
<g>
</g>
</svg>
