<?xml version="1.0" encoding="utf-8"?>
<!-- Generator: Adobe Illustrator 23.0.1, SVG Export Plug-In . SVG Version: 6.00 Build 0)  -->
<svg version="1.1" id="圖層_1" xmlns="http://www.w3.org/2000/svg" xmlns:xlink="http://www.w3.org/1999/xlink" x="0px" y="0px"
	 viewBox="0 0 62 62" style="enable-background:new 0 0 62 62;" xml:space="preserve">
<style type="text/css">
	.st0{fill:#FFFFFF;}
</style>
<path class="st0" d="M47.9172,11.5904H16.7659v5.1777h-3.7847c-0.7134,0-1.3911,0.5059-1.3911,1.2178v2.5869
	c0,0.7119,0.6777,1.3701,1.3911,1.3701h3.7847v2.5879h-3.7847c-0.7134,0-1.3911,0.5078-1.3911,1.2188v2.5879
	c0,0.7129,0.6777,1.3681,1.3911,1.3681h3.7847v2.5899h-3.7847c-0.7134,0-1.3911,0.5058-1.3911,1.2158v2.5889
	c0,0.7119,0.6777,1.3691,1.3911,1.3691h3.7847v2.5898h-3.7847c-0.7134,0-1.3911,0.5059-1.3911,1.2178v2.5869
	c0,0.7119,0.6777,1.3702,1.3911,1.3702h3.7847v5.1757h31.1513c1.4297,0,2.4927-1.2334,2.4927-2.6631V14.1031
	C50.4099,12.6734,49.3469,11.5904,47.9172,11.5904z M24.5305,47.8218h-5.1762V45.234h1.3886c0.7115,0,1.1988-0.6583,1.1988-1.3702
	v-2.5869c0-0.7119-0.4873-1.2178-1.1988-1.2178h-1.3886v-2.5898h1.3886c0.7115,0,1.1988-0.6572,1.1988-1.3691v-2.5889
	c0-0.71-0.4873-1.2158-1.1988-1.2158h-1.3886v-2.5899h1.3886c0.7115,0,1.1988-0.6552,1.1988-1.3681v-2.5879
	c0-0.711-0.4873-1.2188-1.1988-1.2188h-1.3886v-2.5879h1.3886c0.7115,0,1.1988-0.6582,1.1988-1.3701v-2.5869
	c0-0.7119-0.4873-1.2178-1.1988-1.2178h-1.3886v-2.5898h5.1762V47.8218z"/>
<g>
</g>
<g>
</g>
<g>
</g>
<g>
</g>
<g>
</g>
<g>
</g>
<g>
</g>
<g>
</g>
<g>
</g>
<g>
</g>
<g>
</g>
<g>
</g>
<g>
</g>
<g>
</g>
<g>
</g>
</svg>
