<?xml version="1.0" encoding="utf-8"?>
<!-- Generator: Adobe Illustrator 23.0.1, SVG Export Plug-In . SVG Version: 6.00 Build 0)  -->
<svg version="1.1" id="圖層_1" xmlns="http://www.w3.org/2000/svg" xmlns:xlink="http://www.w3.org/1999/xlink" x="0px" y="0px"
	 viewBox="0 0 62 62" style="enable-background:new 0 0 62 62;" xml:space="preserve">
<style type="text/css">
	.st0{fill:#FFFFFF;}
</style>
<g>
	<path class="st0" d="M10.7431,47.0768l-2.3662,5.3913c-0.119,0.2742-0.0593,0.5933,0.152,0.8045
		c0.1387,0.1396,0.3251,0.2129,0.5137,0.2129c0.0985,0,0.198-0.0199,0.2924-0.0607l5.3898-2.3668
		c0.0821-0.0371,0.1578-0.0879,0.2212-0.1517l14.9955-14.9965l-4.0503-4.0512l-14.9969,14.996
		C10.8305,46.9183,10.7792,46.9934,10.7431,47.0768z"/>
	<path class="st0" d="M27.4387,17.801c-2.8877-0.4387-8.234,8.6278-8.234,8.6278c-0.6559-0.1915-1.3823-0.2885-2.1679-0.2885
		c-2.4122,0-5.2234,0.906-8.3538,2.6936c-0.1971,0.1119-0.3291,0.3089-0.3603,0.5341c-0.0295,0.2233,0.0464,0.449,0.2069,0.6091
		l9.5168,9.5174l-0.0053,0.0053l4.0512,4.051l0.0053-0.0053l10.2381,10.2388c0.1373,0.1372,0.3219,0.2129,0.5136,0.2129
		c0.0321,0,0.0643-0.0022,0.0964-0.006c0.2238-0.0303,0.4218-0.1637,0.5341-0.3601c3.7552-6.5768,2.6963-10.206,2.0055-11.5312
		c0,0,8.4535-4.5416,8.4535-8.1699S34.3835,18.856,27.4387,17.801z"/>
	<path class="st0" d="M39.4387,20.5915c3.3324,2.7367,9.437,12.4326,9.437,12.4326c0.2787,0.2182,0.7071,0.2106,0.9604-0.0424
		l3.6351-3.6359c0.2832-0.2833,0.2832-0.7426,0-1.0266L33.3593,8.2068c-0.2729-0.2719-0.7549-0.2719-1.0269,0l-3.6343,3.6361
		c-0.2849,0.2831-0.2849,0.7433,0,1.0264l2.9905,2.015C31.6887,14.8843,36.022,17.7856,39.4387,20.5915z"/>
</g>
<g>
</g>
<g>
</g>
<g>
</g>
<g>
</g>
<g>
</g>
<g>
</g>
<g>
</g>
<g>
</g>
<g>
</g>
<g>
</g>
<g>
</g>
<g>
</g>
<g>
</g>
<g>
</g>
<g>
</g>
</svg>
