<?xml version="1.0" encoding="utf-8"?>
<!-- Generator: Adobe Illustrator 23.0.1, SVG Export Plug-In . SVG Version: 6.00 Build 0)  -->
<svg version="1.1" id="圖層_1" xmlns="http://www.w3.org/2000/svg" xmlns:xlink="http://www.w3.org/1999/xlink" x="0px" y="0px"
	 viewBox="0 0 30.5603 30.5896" style="enable-background:new 0 0 30.5603 30.5896;" xml:space="preserve">
<style type="text/css">
	.st0{fill:#467500;}
</style>
<g>
	<path class="st0" d="M27.7795,30.5896c-0.7739-0.6817-1.5827-1.3283-2.315-2.0522c-1.8428-1.8218-3.6511-3.6785-5.4925-5.5407
		c-3.4731,2.2705-7.1452,2.9162-11.063,1.7399c-2.8764-0.8636-5.1631-2.5868-6.8099-5.0961
		c-3.4113-5.1983-2.5847-12.136,1.8974-16.2408c4.6257-4.2364,11.4953-4.5422,16.3851-0.7565
		c4.9422,3.8262,6.7381,11.2045,2.5455,17.4534c0.9246,0.8851,1.8834,1.7843,2.8213,2.705c1.3709,1.3457,2.7377,2.696,4.0805,4.0695
		c0.2986,0.3054,0.4904,0.7151,0.7314,1.0768c0,0.2781,0,0.5562,0,0.8342c-0.3376,0.8674-0.9157,1.4943-1.8075,1.8075
		C28.4284,30.5896,28.104,30.5896,27.7795,30.5896z M1.2734,12.3712c-0.135,6.1774,4.6442,11.3679,10.94,11.643
		c6.0821,0.2657,11.4612-4.6664,11.7802-10.7414C24.325,6.9606,19.5228,1.6236,13.1178,1.3032
		C6.9985,0.997,1.4946,5.7278,1.2734,12.3712z"/>
	<path class="st0" d="M12.7414,22.3526c-5.2427,0.1096-9.6656-4.1828-9.7988-9.5097C2.8086,7.4862,7.13,3.0442,12.5635,2.9535
		c5.2784-0.0881,9.6728,4.2344,9.7696,9.6097C22.4282,17.8402,18.117,22.2403,12.7414,22.3526z M12.5946,21.0557
		c4.6095,0.0511,8.398-3.6898,8.452-8.3457c0.0534-4.6082-3.6957-8.4156-8.3367-8.4663C8.0688,4.1929,4.2979,7.8974,4.2468,12.558
		C4.1952,17.259,7.8736,21.0034,12.5946,21.0557z"/>
	<path class="st0" d="M10.5246,9.8479c0.3999-0.0969,0.7921-0.154,1.1506-0.2962c0.159-0.0631,0.34-0.2904,0.3544-0.4567
		c0.0439-0.5052,0.0111-1.0171,0.0088-1.5264c-0.0019-0.4253,0.1578-0.7447,0.625-0.7479c0.4718-0.0032,0.631,0.3375,0.6413,0.7461
		c0.0156,0.6204,0.0041,1.2414,0.0041,1.8661c0.5482,0.1462,1.0362,0.2764,1.5736,0.4198c0.3031-0.5291,0.6084-1.0659,0.9177-1.6003
		c0.2044-0.3531,0.4817-0.6083,0.9027-0.3812c0.4358,0.2351,0.4362,0.6051,0.2034,1.0071
		c-0.3011,0.5201-0.5915,1.0464-0.8881,1.5729c0.4086,0.4676,0.9324,0.8734,1.1916,1.4076
		c0.4159,0.8571,0.6887,1.7898,0.9573,2.7094c0.1276,0.4367-0.0297,0.8887-0.5626,0.9287c-0.5321,0.0398-0.6498-0.358-0.6935-0.8317
		c-0.2008-2.1797-1.7395-3.7087-3.9065-3.9202c-1.8879-0.1843-3.7765,1.1255-4.3127,3.0138
		c-0.0999,0.352-0.118,0.7279-0.1667,1.0937c-0.0572,0.4299-0.199,0.7878-0.7238,0.7324c-0.4798-0.0506-0.5822-0.4195-0.5635-0.8132
		c0.0686-1.4442,0.5877-2.6992,1.6242-3.7243c0.1794-0.1774,0.3648-0.3486,0.5586-0.5334c-0.324-0.5589-0.6339-1.098-0.9485-1.6345
		c-0.2181-0.372-0.2251-0.7174,0.172-0.96C9.0571,7.6671,9.3506,7.8855,9.566,8.2358C9.8915,8.765,10.202,9.3035,10.5246,9.8479z"/>
	<path class="st0" d="M10.2404,14.1399c-0.0034-1.3853,1.068-2.4714,2.45-2.4836c1.3956-0.0123,2.532,1.1168,2.516,2.4998
		c-0.0158,1.3622-1.1347,2.4639-2.4957,2.4573C11.3409,16.6067,10.2438,15.5082,10.2404,14.1399z M13.9155,14.095
		c-0.0174-0.6893-0.5718-1.1989-1.2678-1.1654c-0.6439,0.031-1.1496,0.5808-1.1366,1.2357c0.0134,0.6756,0.574,1.1832,1.2772,1.1566
		C13.4494,15.2969,13.9326,14.7709,13.9155,14.095z"/>
</g>
<g>
</g>
<g>
</g>
<g>
</g>
<g>
</g>
<g>
</g>
<g>
</g>
<g>
</g>
<g>
</g>
<g>
</g>
<g>
</g>
<g>
</g>
<g>
</g>
<g>
</g>
<g>
</g>
<g>
</g>
</svg>
