<?xml version="1.0" encoding="utf-8"?>
<!-- Generator: Adobe Illustrator 23.0.1, SVG Export Plug-In . SVG Version: 6.00 Build 0)  -->
<svg version="1.1" id="圖層_1" xmlns="http://www.w3.org/2000/svg" xmlns:xlink="http://www.w3.org/1999/xlink" x="0px" y="0px"
	 viewBox="0 0 62 62" style="enable-background:new 0 0 62 62;" xml:space="preserve">
<style type="text/css">
	.st0{fill:#FFFFFF;}
</style>
<g>
	<path class="st0" d="M10.5007,53.4276c0-15.2789,0-30.5578,0-45.8367c0.3654-0.3654,0.7307-0.7307,1.0961-1.0961
		c7.6727,0,15.3453,0,23.018,0c0,3.3877,0.0001,6.7754,0.0001,10.1631c0,1.2315,0.5595,1.7933,1.7938,1.7939
		c3.205,0.0013,6.4101,0.0005,9.6151,0.0005c0.1748,0,0.3497,0,0.5485,0c0,1.4491-0.0254,2.8266,0.0138,4.2023
		c0.0137,0.4816-0.1565,0.7319-0.5457,0.9845c-4.1664,2.7047-6.3061,7.7232-5.1159,12.6243c0.079,0.3252,0.0082,0.5135-0.2164,0.737
		c-2.7543,2.7411-5.4948,5.4962-8.2563,8.2301c-0.184,0.1821-0.5081,0.3118-0.7683,0.314c-2.5904,0.022-5.1811,0.0117-7.7717,0.0114
		c-1.9762-0.0002-3.9524-0.0087-5.9284,0.0059c-0.8362,0.0062-1.466,0.6311-1.4992,1.4287
		c-0.0313,0.7527,0.5238,1.4244,1.2828,1.5347c0.1957,0.0284,0.3976,0.0191,0.5967,0.0191
		c3.3877,0.0001,6.7754-0.001,10.1631-0.0019c0.1715,0,0.3429,0,0.6677,0c-1.8406,1.7152-3.603,3.3074-3.53,5.9814
		c-0.2089,0-0.3549,0-0.5009,0c-4.2346,0.0001-8.4694-0.0171-12.7038,0.0142C11.5449,54.5446,10.8923,54.2601,10.5007,53.4276z
		 M27.0923,33.5984c-2.9891,0-5.9781-0.002-8.9672,0.0014c-0.7571,0.0009-1.3025,0.3493-1.5388,0.959
		c-0.3976,1.0263,0.3503,2.0248,1.5384,2.0264c4.1349,0.0056,8.2697,0.0019,12.4046,0.0019c1.8266,0,3.6533-0.0004,5.4799,0.0005
		c0.6809,0.0003,1.1931-0.2911,1.469-0.9151c0.4459-1.0087-0.3003-2.0664-1.4686-2.0704
		C33.0372,33.5917,30.0648,33.5985,27.0923,33.5984z M24.0192,42.5661c1.9927,0,3.9853-0.0024,5.978,0.0013
		c0.6769,0.0013,1.1983-0.2622,1.4879-0.8854c0.4745-1.0213-0.2728-2.0966-1.4687-2.1018
		c-2.3579-0.0103-4.7159-0.0032-7.0739-0.0032c-1.6107,0-3.2215,0.0034-4.8322-0.0013c-0.6771-0.002-1.1993,0.2599-1.4891,0.883
		c-0.4654,1.0008,0.2652,2.0935,1.42,2.1026C20.0338,42.5769,22.0265,42.5656,24.0192,42.5661z M25.6468,24.5309
		c0,1.4612-0.0031,2.9225,0.0011,4.3837c0.0029,1.0139,0.6062,1.691,1.4941,1.6905c0.8849-0.0006,1.4919-0.6816,1.493-1.6933
		c0.0032-2.9225,0.0033-5.8449,0-8.7674c-0.0012-1.0178-0.6019-1.689-1.4945-1.6884c-0.8902,0.0006-1.4897,0.6743-1.4926,1.6912
		C25.6437,21.6084,25.6468,23.0697,25.6468,24.5309z M28.6323,13.9823c0.0074-0.806-0.6722-1.4979-1.4784-1.505
		c-0.8118-0.0072-1.4954,0.6643-1.5034,1.4767c-0.0079,0.8058,0.6711,1.4971,1.4784,1.5051
		C27.9398,15.4671,28.6248,14.7942,28.6323,13.9823z"/>
	<path class="st0" d="M52.9667,42.5706c1.3717-0.0364,3.0375-0.4677,4.5086-1.5066c2.9444-2.0795,4.3179-4.8966,3.9715-8.5164
		c-0.0646-0.6747-0.3647-1.1819-1.0099-1.4059c-0.6442-0.2237-1.1992-0.013-1.6708,0.4682
		c-0.6276,0.6404-1.2655,1.2708-1.9028,1.9017c-0.6704,0.6636-1.4694,1.0278-2.4225,0.9405
		c-1.2387-0.1135-2.1227-0.7739-2.5587-1.9229c-0.4542-1.197-0.1619-2.2894,0.7218-3.2079c0.6677-0.6939,1.3653-1.359,2.0364-2.0498
		c0.4426-0.4556,0.579-1.0084,0.3502-1.6055c-0.221-0.5766-0.6739-0.8705-1.2874-0.955c-3.7353-0.5147-7.4913,1.4739-9.1829,4.8932
		c-1.1942,2.4137-1.2337,4.8839-0.2656,7.3772c0.1471,0.3788,0.0834,0.6157-0.2058,0.9038
		c-4.7536,4.7342-9.4953,9.4804-14.2376,14.226c-0.199,0.1992-0.3934,0.4064-0.5645,0.6295
		c-1.2387,1.6149-0.4737,4.0149,1.4715,4.6152c1.2856,0.3967,2.3312-0.0227,3.2489-0.9422
		c4.7744-4.7839,9.5588-9.5578,14.3288-14.3461c0.2628-0.2638,0.4768-0.318,0.8197-0.1928
		C50.2252,42.2798,51.3577,42.5967,52.9667,42.5706z M45.4375,15.4399c-2.591-2.5945-5.2285-5.2355-7.8104-7.8209
		c0,2.5264,0,5.1609,0,7.8209C40.2872,15.4399,42.9217,15.4399,45.4375,15.4399z"/>
	<path class="st0" d="M52.9667,42.5706c-1.6089,0.0261-2.7415-0.2908-3.8511-0.696c-0.3429-0.1252-0.5569-0.071-0.8197,0.1928
		c-4.77,4.7883-9.5544,9.5621-14.3288,14.3461c-0.9177,0.9195-1.9634,1.3389-3.2489,0.9422
		c-1.9452-0.6003-2.7102-3.0003-1.4715-4.6152c0.1711-0.223,0.3654-0.4303,0.5645-0.6295
		c4.7423-4.7456,9.4839-9.4918,14.2376-14.226c0.2892-0.288,0.3529-0.525,0.2058-0.9038c-0.9681-2.4933-0.9286-4.9635,0.2656-7.3772
		c1.6917-3.4193,5.4476-5.4078,9.1829-4.8932c0.6135,0.0845,1.0664,0.3784,1.2874,0.955c0.2288,0.5971,0.0924,1.1499-0.3502,1.6055
		c-0.671,0.6908-1.3687,1.3558-2.0364,2.0498c-0.8837,0.9185-1.176,2.0109-0.7218,3.2079c0.436,1.149,1.32,1.8094,2.5587,1.9229
		c0.9531,0.0874,1.7521-0.2769,2.4225-0.9405c0.6373-0.6308,1.2752-1.2613,1.9028-1.9017c0.4716-0.4812,1.0267-0.6919,1.6708-0.4682
		c0.6453,0.224,0.9454,0.7312,1.0099,1.4059c0.3464,3.6198-1.0272,6.4369-3.9715,8.5164
		C56.0041,42.1029,54.3384,42.5342,52.9667,42.5706z"/>
	<path class="st0" d="M45.4375,15.4399c-2.5158,0-5.1503,0-7.8104,0c0-2.66,0-5.2945,0-7.8209
		C40.2091,10.2044,42.8465,12.8454,45.4375,15.4399z"/>
</g>
</svg>
