<?xml version="1.0" encoding="utf-8"?>
<!-- Generator: Adobe Illustrator 23.0.1, SVG Export Plug-In . SVG Version: 6.00 Build 0)  -->
<svg version="1.1" id="圖層_1" xmlns="http://www.w3.org/2000/svg" xmlns:xlink="http://www.w3.org/1999/xlink" x="0px" y="0px"
	 viewBox="0 0 62 62" style="enable-background:new 0 0 62 62;" xml:space="preserve">
<style type="text/css">
	.st0{fill:#9FA0A0;}
</style>
<g>
	<g>
		<g>
			<path class="st0" d="M19.8721,29.8247v6.9424h-5.9424v-6.9424L19.8721,29.8247 M21.6651,27.1362h-9.5259
				c-0.4937,0-0.895,0.4034-0.895,0.8956v20.7363c0,0.4931,0.4013,0.8935,0.895,0.8935h9.5278c0.4941,0,0.8936-0.4004,0.8936-0.8935
				V28.0318C22.5576,27.5396,22.1592,27.1362,21.6651,27.1362L21.6651,27.1362z"/>
		</g>
	</g>
	<g>
		<g>
			<path class="st0" d="M33.8857,24.4419V38.398h-5.9449V24.4419H33.8857 M35.6777,21.7525h-9.5283
				c-0.4922,0-0.894,0.4033-0.894,0.8964v26.1192c0,0.4931,0.4018,0.8935,0.894,0.8935h9.5283c0.4908,0,0.8931-0.4004,0.8931-0.8935
				V22.6489C36.5708,22.1528,36.1684,21.7525,35.6777,21.7525L35.6777,21.7525z"/>
		</g>
	</g>
	<g>
		<g>
			<path class="st0" d="M48.0708,15.0239v17.2666H42.126V15.0239H48.0708 M49.8573,12.3384h-9.5219
				c-0.4952,0-0.897,0.4004-0.897,0.8945v35.5323c0,0.4941,0.4018,0.8945,0.897,0.8945h9.5219c0.4991,0,0.8985-0.4004,0.8985-0.8945
				V13.2329C50.7558,12.7388,50.3564,12.3384,49.8573,12.3384L49.8573,12.3384z"/>
		</g>
	</g>
</g>
</svg>
