<?xml version="1.0" encoding="utf-8"?>
<!-- Generator: Adobe Illustrator 23.0.1, SVG Export Plug-In . SVG Version: 6.00 Build 0)  -->
<svg version="1.1" id="圖層_1" xmlns="http://www.w3.org/2000/svg" xmlns:xlink="http://www.w3.org/1999/xlink" x="0px" y="0px"
	 viewBox="0 0 44.293 40.9499" style="enable-background:new 0 0 44.293 40.9499;" xml:space="preserve">
<style type="text/css">
	.st0{fill:#FFFFFF;}
</style>
<g>
	<path d="M32.5725,7.3107c0-0.938-0.3661-1.8211-1.0295-2.4845l-3.3127-3.3127c-0.6542-0.6543-1.583-1.0295-2.5072-1.0295h-0.2013
		V7.512h7.0509L32.5725,7.3107L32.5725,7.3107z"/>
	<path d="M29.4955,30.589l-3.7245,1.2434l-0.5674,0.0309c-0.938,0-1.8257-0.4564-2.377-1.2205
		c-0.5468-0.7607-0.6955-1.7467-0.3981-2.6378l1.1187-3.3494c0.2242-0.6806,0.6154-1.3143,1.1256-1.8279l7.931-7.899v-5.074h-8.2307
		c-0.6474,0-1.1333-0.5239-1.1333-1.1714V0.4839H5.6695c-1.9377,0-3.5141,1.5763-3.5141,3.5141v32.954
		c0,1.9377,1.5763,3.5141,3.5141,3.5141h23.389c1.9377,0,3.5453-1.5763,3.5453-3.5141v-8.7423l-1.2872,1.256
		C30.795,29.9827,30.1842,30.3591,29.4955,30.589z"/>
	<path d="M25.3912,29.49l3.0555-1.0205l-2.7775-2.7775l-1.0191,3.0573C24.4974,29.2073,24.9332,29.643,25.3912,29.49z"/>
	<path d="M27.0521,23.7622l3.327,3.327c1.7436-1.7439,5.1362-5.137,7.7141-7.7148l-3.3266-3.3266L27.0521,23.7622z"/>
	<path d="M41.4492,12.6881c-0.4118-0.4141-1.0181-0.6509-1.661-0.6509c-0.6429,0-1.2491,0.2368-1.6632,0.6521l-1.7021,1.7021
		l3.3265,3.3265c0.9319-0.9319,1.5759-1.576,1.7023-1.7023C42.3666,15.0992,42.3665,13.6066,41.4492,12.6881z"/>
	<g>
		<path class="st0" d="M21.1567,13.0795v1.7998H17.481v2.6455c0,0.3994,0.1699,0.5996,0.5234,0.6152
			c0.1533,0.0303,0.3535,0.0459,0.6309,0.0459c0.6152,0,0.9844-0.0156,1.0918-0.0771c0.123-0.0762,0.2148-0.2148,0.2461-0.415
			c0.0303-0.0918,0.0615-0.4609,0.0918-1.0762l1.8154,1.0303c-0.0928,1.0303-0.292,1.6611-0.5693,1.9229
			c-0.1846,0.123-0.4609,0.1992-0.7998,0.2607c-0.2158,0.0615-0.8457,0.0928-1.876,0.0928c-0.4922,0-0.9385-0.0313-1.3389-0.0771
			c-1.0762-0.0303-1.6143-0.6152-1.6143-1.7227v-3.2451h-2.0615c-0.2461,1.4922-0.7227,2.6455-1.3994,3.4453
			c-0.8311,0.8916-1.9844,1.5381-3.4453,1.9072l-0.7852-1.6924c1.2158-0.2764,2.1543-0.7686,2.7998-1.4766
			c0.4619-0.4922,0.7842-1.2148,0.9688-2.1836H8.6528v-1.7998H21.1567z M15.8657,6.2816v1.2148h5.5225v3.1221h-1.7998V9.2347
			h-9.3672v1.3838H8.4224V7.4965h5.46V6.2816H15.8657z M19.2349,10.3109v1.7383h-8.7207v-1.7383H19.2349z"/>
		<path class="st0" d="M21.2192,27.142c-0.7695,2.0303-1.6152,3.6611-2.5234,4.8916c0.0625,0.1689,0.123,0.3223,0.1855,0.4609
			c0.3379,0.6465,0.5684,0.9541,0.707,0.9541s0.2461-0.0469,0.3076-0.1699c0.1074-0.2461,0.1689-0.9531,0.1689-2.1064l1.877,0.5381
			c-0.2158,1.876-0.5537,2.999-1.0459,3.3994c-0.3232,0.292-0.7539,0.4453-1.3076,0.4453s-1.1074-0.3535-1.6455-1.0303
			c-0.2158-0.3076-0.415-0.6309-0.585-0.9844c-0.8613,0.7998-1.7988,1.4922-2.8145,2.0762l-0.7842-1.4453
			c1.1689-0.7383,2.1377-1.5537,2.9072-2.4307c-0.123-0.3994-0.2158-0.8145-0.3086-1.2607
			c-0.2764-1.3076-0.4922-3.0459-0.6758-5.1992h-4.7383v1.7383h3.9688c-0.0459,3.5996-0.3076,5.7061-0.7695,6.3369
			c-0.3223,0.4307-0.7842,0.6309-1.3994,0.6309c-0.3994,0-0.8154-0.0928-1.2607-0.292l-0.3691-1.7539
			c0.4453,0.2158,0.8916,0.3076,1.3223,0.3076c0.2158,0,0.3389-0.0918,0.3691-0.2764c0.1074-0.4619,0.2002-1.5537,0.293-3.2764
			h-2.1543v0.7539c0,1.1689-0.1377,2.3066-0.3994,3.3984c-0.2158,0.8926-0.5537,1.7842-1.0459,2.707l-1.5684-0.9072
			c0.5225-1.1377,0.8613-2.1377,1.0449-2.9834c0.1855-1.0313,0.2773-2.0615,0.2773-3.1074v-4.9678h6.3066
			c-0.0469-0.5996-0.0771-1.2148-0.1084-1.8613h1.8613c0.0156,0.6611,0.0303,1.2764,0.0615,1.8613h1.6309
			c-0.3691-0.3076-0.7236-0.585-1.0928-0.8311l1.1387-1.1992c0.6152,0.3232,1.1689,0.707,1.6768,1.1377l-0.708,0.8926h1.5537v1.6914
			H17.481c0.123,1.6768,0.293,3.0146,0.5078,3.999c0.0313,0.1543,0.0459,0.3076,0.0771,0.4307
			c0.5693-1.0146,1.0762-2.1533,1.5225-3.4141L21.2192,27.142z"/>
	</g>
</g>
<g>
</g>
<g>
</g>
<g>
</g>
<g>
</g>
<g>
</g>
<g>
</g>
<g>
</g>
<g>
</g>
<g>
</g>
<g>
</g>
<g>
</g>
<g>
</g>
<g>
</g>
<g>
</g>
<g>
</g>
</svg>
