<?xml version="1.0" encoding="utf-8"?>
<!-- Generator: Adobe Illustrator 23.0.1, SVG Export Plug-In . SVG Version: 6.00 Build 0)  -->
<svg version="1.1" id="圖層_1" xmlns="http://www.w3.org/2000/svg" xmlns:xlink="http://www.w3.org/1999/xlink" x="0px" y="0px"
	 viewBox="0 0 44.293 40.9499" style="enable-background:new 0 0 44.293 40.9499;" xml:space="preserve">
<g>
	<g>
		<path d="M26.1853,26.9152l-1.0967,5.3135l-0.0003-0.0003c0,0-0.3484,1.4358-0.3917,1.6156
			c-0.0434,0.1795,0.1508,0.3656,0.2975,0.2644c0.1455-0.1017,1.2587-0.8769,1.2805-0.8922l4.1766-2.7584l11.2546-17.2636
			l-4.2668-3.542L26.1853,26.9152z M43.9327,8.1184l-2.8394-2.3537c-0.3942-0.327-0.9494-0.2344-1.2408,0.2092l-1.5953,2.4272
			l-0.0016-0.0011L38.1708,8.53l4.2667,3.5421l0.0851-0.1305l1.5968-2.4292C44.4105,9.0691,44.327,8.4446,43.9327,8.1184z"/>
		<g>
			<g>
				<path d="M6.0698,40.6214C2.887,40.615,0.306,37.715,0.3004,34.1388l0,0V7.2326C0.306,3.6565,2.887,0.7567,6.0698,0.7505l0,0
					h21.8329c3.1827,0.0062,5.7637,2.906,5.7694,6.4822l0,0v26.9061c-0.0057,3.5763-2.5867,6.4762-5.7694,6.4827l0,0H6.0698
					L6.0698,40.6214z M3.1851,7.2326v26.9061c0.0028,1.7722,1.3079,3.2382,2.8848,3.2413l0,0h21.8329
					c1.5765-0.0031,2.8818-1.4691,2.8848-3.2413l0,0V7.2326c-0.0029-1.7714-1.3082-3.2379-2.8848-3.241l0,0H6.0698
					C4.493,3.9947,3.1878,5.4612,3.1851,7.2326L3.1851,7.2326z"/>
			</g>
			<g>
				<path d="M7.0725,13.59c-0.7468,0-1.3518-0.6799-1.3518-1.5191l0,0c0-0.8385,0.605-1.5191,1.3518-1.5191l0,0h20.1293
					c0.7464,0,1.3519,0.6806,1.3519,1.5191l0,0c0,0.8391-0.6056,1.5191-1.3519,1.5191l0,0H7.0725L7.0725,13.59z"/>
			</g>
			<g>
				<path d="M7.0725,21.1853c-0.7468,0-1.3518-0.6799-1.3518-1.5191l0,0c0-0.8385,0.605-1.5191,1.3518-1.5191l0,0h20.1293
					c0.7464,0,1.3519,0.6806,1.3519,1.5191l0,0c0,0.8391-0.6056,1.5191-1.3519,1.5191l0,0H7.0725L7.0725,21.1853z"/>
			</g>
			<g>
				<path d="M7.0725,28.7805c-0.7468,0-1.3518-0.6799-1.3518-1.5191l0,0c0-0.8385,0.605-1.5191,1.3518-1.5191l0,0h20.1293
					c0.7464,0,1.3519,0.6806,1.3519,1.5191l0,0c0,0.8391-0.6056,1.5191-1.3519,1.5191l0,0H7.0725L7.0725,28.7805z"/>
			</g>
		</g>
	</g>
	<g>
		<path d="M25.8849,26.4932l-1.0967,5.3135l-0.0003-0.0003c0,0-0.3484,1.4358-0.3917,1.6156
			c-0.0434,0.1795,0.1508,0.3656,0.2975,0.2644c0.1455-0.1017,1.2587-0.8769,1.2805-0.8922l4.1766-2.7584l11.2546-17.2636
			l-4.2668-3.542L25.8849,26.4932z M43.6323,7.6964l-2.8394-2.3537c-0.3942-0.327-0.9494-0.2344-1.2408,0.2092l-1.5953,2.4272
			L37.9552,7.978L37.8703,8.108l4.2667,3.5421l0.0851-0.1305l1.5968-2.4292C44.1101,8.6472,44.0266,8.0226,43.6323,7.6964z"/>
		<g>
			<g>
				<path d="M5.7694,40.1995C2.5865,40.193,0.0056,37.2931,0,33.7168l0,0V6.8107c0.0056-3.5761,2.5865-6.4759,5.7694-6.4822l0,0
					h21.8329c3.1827,0.0062,5.7637,2.906,5.7694,6.4822l0,0v26.9061c-0.0057,3.5763-2.5867,6.4762-5.7694,6.4827l0,0H5.7694
					L5.7694,40.1995z M2.8846,6.8107v26.9061c0.0028,1.7722,1.3079,3.2382,2.8848,3.2413l0,0h21.8329
					c1.5765-0.0031,2.8818-1.4691,2.8848-3.2413l0,0V6.8107c-0.0029-1.7714-1.3082-3.2379-2.8848-3.241l0,0H5.7694
					C4.1926,3.5728,2.8874,5.0392,2.8846,6.8107L2.8846,6.8107z"/>
			</g>
			<g>
				<path d="M6.7721,13.1681c-0.7468,0-1.3518-0.6799-1.3518-1.5191l0,0c0-0.8385,0.605-1.5191,1.3518-1.5191l0,0h20.1293
					c0.7464,0,1.3519,0.6806,1.3519,1.5191l0,0c0,0.8391-0.6056,1.5191-1.3519,1.5191l0,0H6.7721L6.7721,13.1681z"/>
			</g>
			<g>
				<path d="M6.7721,20.7633c-0.7468,0-1.3518-0.6799-1.3518-1.5191l0,0c0-0.8385,0.605-1.5191,1.3518-1.5191l0,0h20.1293
					c0.7464,0,1.3519,0.6806,1.3519,1.5191l0,0c0,0.8391-0.6056,1.5191-1.3519,1.5191l0,0H6.7721L6.7721,20.7633z"/>
			</g>
			<g>
				<path d="M6.7721,28.3586c-0.7468,0-1.3518-0.6799-1.3518-1.5191l0,0c0-0.8385,0.605-1.5191,1.3518-1.5191l0,0h20.1293
					c0.7464,0,1.3519,0.6806,1.3519,1.5191l0,0c0,0.8391-0.6056,1.5191-1.3519,1.5191l0,0H6.7721L6.7721,28.3586z"/>
			</g>
		</g>
	</g>
</g>
<g>
</g>
<g>
</g>
<g>
</g>
<g>
</g>
<g>
</g>
<g>
</g>
<g>
</g>
<g>
</g>
<g>
</g>
<g>
</g>
<g>
</g>
<g>
</g>
<g>
</g>
<g>
</g>
<g>
</g>
</svg>
