<?xml version="1.0" encoding="utf-8"?>
<!-- Generator: Adobe Illustrator 23.0.1, SVG Export Plug-In . SVG Version: 6.00 Build 0)  -->
<svg version="1.1" id="圖層_1" xmlns="http://www.w3.org/2000/svg" xmlns:xlink="http://www.w3.org/1999/xlink" x="0px" y="0px"
	 viewBox="0 0 44.293 40.9499" style="enable-background:new 0 0 44.293 40.9499;" xml:space="preserve">
<g>
	<g>
		<path d="M21.0074,24.3027l2.3315,1.9345c-1.5904,2.66-1.8904,6.0331-0.5013,9.0548c2.2369,4.8679,8.016,7.0079,12.8833,4.7705
			c4.8673-2.2358,7.0074-8.0163,4.7716-12.8826c-2.2374-4.8678-8.0165-7.0079-12.8844-4.772
			c-0.7543,0.3481-1.4428,0.7796-2.0591,1.2796l-4.5416-2.8732 M28.5538,24.4672c3.7332-1.7153,8.1648-0.0752,9.8802,3.6566
			c1.3497,2.9416,0.6184,6.312-1.5752,8.4506c-0.5823-2.782-1.8467-3.7959-2.2074-4.0348
			c-0.0355,0.0342-0.0723,0.0665-0.1078,0.0971c-0.0373,0.0346-0.0756,0.0674-0.1139,0.0981
			c-0.0783,0.0637-0.1587,0.1261-0.2424,0.1849l-1.6907,3.5696l-0.3662-2.0426l0.5025-0.8261
			c-0.0625,0.015-0.1243,0.0273-0.1872,0.0396c-0.1614,0.0288-0.3251,0.0509-0.4915,0.0629
			c-0.0913,0.0082-0.1823,0.011-0.2758,0.0137c-0.3547,0.0028-0.7-0.037-1.0317-0.1122l0.5282,0.8331l-0.3016,2.0858l-1.9555-3.7415
			c-0.0882-0.0692-0.1747-0.1418-0.2578-0.2173l-0.035,0.0301c-1.2725,1.1237-1.8882,2.6581-2.1849,3.9294
			c-0.6273-0.6151-1.1559-1.3524-1.5445-2.1982C23.1802,30.6133,24.8216,26.1812,28.5538,24.4672z"/>
		<path d="M31.5881,25.1987c-2.2703,0.0246-4.0978,1.892-4.0732,4.1623c0.0236,2.2703,1.8911,4.0977,4.1602,4.0731
			c2.2708-0.0241,4.0989-1.8907,4.0737-4.1607C35.7242,27.0032,33.8584,25.1755,31.5881,25.1987z"/>
	</g>
	<g>
		<path d="M15.5118,4.1993c-3.0305,0-5.4951,2.4646-5.4951,5.4954c0,3.0305,2.4645,5.4959,5.4951,5.4959
			c3.031,0,5.4956-2.4654,5.4956-5.4959C21.0074,6.6639,18.5428,4.1993,15.5118,4.1993z"/>
		<path d="M5.116,19.8383L5.116,19.8383c2.2889,3.354,6.1404,5.5613,10.4987,5.5613c7.0024,0,12.7005-5.6968,12.7005-12.7005
			C28.3152,5.6959,22.6171,0,15.6147,0C8.6112,0,2.9141,5.6959,2.9141,12.6992c0,1.3029,0.1977,2.5578,0.5632,3.7436l1.0256,2.4401
			 M22.4211,19.6569c-0.7164-3.8725-2.4383-5.2879-2.9249-5.6166c-0.0482,0.0425-0.0974,0.0852-0.1467,0.1281
			c-0.0493,0.0419-0.1002,0.0843-0.1522,0.1267c-0.1056,0.0837-0.2145,0.1658-0.3262,0.2452l-2.3069,4.7392L16.105,16.549
			l0.6825-1.096c-0.0837,0.0178-0.1669,0.0342-0.2507,0.0493c-0.2157,0.0369-0.4346,0.0643-0.6579,0.078
			c-0.1209,0.0077-0.2435,0.0137-0.3672,0.0137c-0.4729,0-0.9327-0.0575-1.3754-0.1642l0.6934,1.1198l-0.4335,2.7779l-2.5549-5.0214
			c-0.1176-0.093-0.232-0.191-0.342-0.2944l-0.0471,0.0411c-1.729,1.4961-2.5713,3.5553-2.9812,5.2584
			c-1.6097-1.7386-2.596-4.0617-2.596-6.6119c0-5.3695,4.3693-9.7393,9.7396-9.7393c5.3703,0,9.7389,4.3698,9.7389,9.7393
			C25.3536,15.4226,24.2299,17.8861,22.4211,19.6569z"/>
	</g>
</g>
<g>
</g>
<g>
</g>
<g>
</g>
<g>
</g>
<g>
</g>
<g>
</g>
<g>
</g>
<g>
</g>
<g>
</g>
<g>
</g>
<g>
</g>
<g>
</g>
<g>
</g>
<g>
</g>
<g>
</g>
</svg>
