<?xml version="1.0" encoding="utf-8"?>
<!-- Generator: Adobe Illustrator 23.0.1, SVG Export Plug-In . SVG Version: 6.00 Build 0)  -->
<svg version="1.1" id="圖層_1" xmlns="http://www.w3.org/2000/svg" xmlns:xlink="http://www.w3.org/1999/xlink" x="0px" y="0px"
	 viewBox="0 0 62 62" style="enable-background:new 0 0 62 62;" xml:space="preserve">
<style type="text/css">
	.st0{fill:#FFFFFF;}
</style>
<g>
	<path class="st0" d="M51.8789,16.1762l-0.0123-0.5601l-0.5279-0.1877c-1.1361-0.4039-2.2757-0.7989-3.3777-1.1808
		c-2.5904-0.8975-5.0372-1.7455-7.4815-2.714c-1.9213-0.7612-3.8355-1.6716-5.6867-2.5521
		c-0.8305-0.395-1.6893-1.0984-2.5409-1.4898l-0.1616-0.3691h-2.1724l-1.6405,0.9966c-1.0782,0.4617-2.1562,1.071-3.2363,1.5281
		c-0.9019,0.3817-1.8021,0.8413-2.7023,1.2272c-2.3407,1.0035-4.7612,2.0781-7.1664,3.0173
		c-0.9486,0.3706-1.9945,0.6303-3.0059,0.8636c-0.4735,0.1091-0.963,0.2314-1.4418,0.357l-0.5959,0.1609l-0.0104,0.6183
		c-0.0833,4.9338,0.4137,9.4085,1.5198,13.6777c2.6678,10.2975,8.1532,18.2528,16.3038,23.6433
		c0.4123,0.2728,0.7465,0.5054,1.0415,0.7105c0.8848,0.6152,1.3723,0.9542,2.01,0.9542c0.6579,0,1.1451-0.3592,2.0296-1.0117
		c0.2997-0.221,0.6392-0.4713,1.0621-0.7675c8.1585-5.7145,13.6399-13.7662,16.2922-23.932
		C51.471,24.9747,51.9762,20.6041,51.8789,16.1762z M30.9942,11.2706c0.9677,0,1.9435,0.2779,2.9836,0.8499
		c5.3583,2.9461,9.9302,4.7945,14.3804,5.8135c0.0148,0.0127,0.0313,0.0292,0.0461,0.0458
		c-0.4734,14.4183-6.0257,25.2208-16.971,32.8799c-0.299,0.2093-0.4269,0.2794-0.4697,0.2794h-0.0008
		c-0.1166,0-0.286-0.1397-0.5037-0.2794c-7.1441-4.5817-11.9838-11.0404-14.7959-19.6744
		c-1.1894-3.652-1.8835-7.6503-2.0638-11.8598c-0.0227-0.5684-0.0461-1.1646,0.0118-1.2859
		c0.1146-0.1113,0.7643-0.285,1.2865-0.4211c4.0704-1.0614,8.2471-2.8128,13.1441-5.5073
		C29.0672,11.5469,30.0329,11.2706,30.9942,11.2706z"/>
	<path class="st0" d="M28.0517,35.9883c0.1381,0.274,0.4187,0.1344,0.7255,0.1344h0.3744c0.2705,0,0.5232,0.1779,0.6742-0.0465
		l9.194-13.5068c0.1676-0.2492,0.1842-0.6607,0.0431-0.9258s-0.4169-0.5209-0.7173-0.5209h-0.9812
		c-0.2944,0-0.5658,0.3276-0.7094,0.5845c-0.8988,1.609-4.1805,6.3394-6.352,9.4141c-0.5122,0.7251-0.9042,1.3227-1.2006,1.7453
		c-0.8717-1.7734-1.4084-2.8752-1.5984-3.2763c-0.1345-0.2837-0.4204-0.4675-0.7343-0.4675h-0.9939
		c-0.2821,0-0.5441,0.1703-0.692,0.4106c-0.1479,0.2403-0.1606,0.3958-0.0335,0.6475L28.0517,35.9883z"/>
</g>
<g>
</g>
<g>
</g>
<g>
</g>
<g>
</g>
<g>
</g>
<g>
</g>
<g>
</g>
<g>
</g>
<g>
</g>
<g>
</g>
<g>
</g>
<g>
</g>
<g>
</g>
<g>
</g>
<g>
</g>
</svg>
