<?xml version="1.0" encoding="utf-8"?>
<!-- Generator: Adobe Illustrator 23.0.1, SVG Export Plug-In . SVG Version: 6.00 Build 0)  -->
<svg version="1.1" id="圖層_1" xmlns="http://www.w3.org/2000/svg" xmlns:xlink="http://www.w3.org/1999/xlink" x="0px" y="0px"
	 viewBox="0 0 44.293 40.9499" style="enable-background:new 0 0 44.293 40.9499;" xml:space="preserve">
<style type="text/css">
	.st0{fill:#FFFFFF;}
</style>
<g>
	<path d="M32.5725,7.3107c0-0.938-0.3661-1.8211-1.0295-2.4845l-3.3127-3.3127c-0.6542-0.6543-1.583-1.0295-2.5072-1.0295h-0.2013
		V7.512h7.0509L32.5725,7.3107L32.5725,7.3107z"/>
	<path d="M29.4955,30.589l-3.7245,1.2434l-0.5674,0.0309c-0.938,0-1.8257-0.4564-2.377-1.2205
		c-0.5468-0.7607-0.6955-1.7467-0.3981-2.6378l1.1187-3.3494c0.2242-0.6806,0.6154-1.3143,1.1256-1.8279l7.931-7.899v-5.074h-8.2307
		c-0.6474,0-1.1333-0.5239-1.1333-1.1714V0.4839H5.6695c-1.9377,0-3.5141,1.5763-3.5141,3.5141v32.954
		c0,1.9377,1.5763,3.5141,3.5141,3.5141h23.389c1.9377,0,3.5453-1.5763,3.5453-3.5141v-8.7423l-1.2872,1.256
		C30.795,29.9827,30.1842,30.3591,29.4955,30.589z"/>
	<path d="M25.3912,29.49l3.0555-1.0205l-2.7775-2.7775l-1.0191,3.0573C24.4974,29.2073,24.9332,29.643,25.3912,29.49z"/>
	<path d="M27.0521,23.7622l3.327,3.327c1.7436-1.7439,5.1362-5.137,7.7141-7.7148l-3.3266-3.3266L27.0521,23.7622z"/>
	<path d="M41.4492,12.6881c-0.4118-0.4141-1.0181-0.6509-1.661-0.6509c-0.6429,0-1.2491,0.2368-1.6632,0.6521l-1.7021,1.7021
		l3.3265,3.3265c0.9319-0.9319,1.5759-1.576,1.7023-1.7023C42.3666,15.0992,42.3665,13.6066,41.4492,12.6881z"/>
	<g>
		<path class="st0" d="M12.3745,11.034c-0.3076,0.708-0.707,1.3999-1.1992,2.1074v7.0293H9.4985v-5.0449
			c-0.2002,0.1997-0.3848,0.3535-0.5381,0.4766l-1.1387-1.5073c0.5381-0.4771,1.1074-1.1074,1.7227-1.8921
			c0.5234-0.6919,0.9541-1.3838,1.2764-2.0762L12.3745,11.034z M12.021,7.2508c-0.3076,0.6455-0.7383,1.3071-1.2607,1.9839
			c-0.708,0.8306-1.2773,1.415-1.7383,1.7378L7.8677,9.4657c0.4775-0.3691,0.9697-0.877,1.4922-1.4922
			c0.4619-0.5381,0.8154-1.0767,1.0918-1.6304L12.021,7.2508z M16.2202,7.7274V6.2816h1.7529v1.4458h3.6611v1.6304h-3.6611v1.4917
			h3.3066v1.6309H20.311v1.0762h1.4463v1.6768H20.311v2.6455c0,0.9536-0.1533,1.5688-0.4453,1.8301
			c-0.3232,0.3389-0.877,0.5234-1.6621,0.5234c-0.5381,0-1.0303-0.1079-1.4912-0.3076l-0.3076-1.9229
			c0.5996,0.2769,1.1992,0.415,1.7988,0.415c0.2461,0,0.3691-0.2764,0.3691-0.8301v-2.3535h-3.4453
			c0.4922,0.4922,0.9844,1.0615,1.4619,1.6919L15.02,18.1864c-0.4453-0.7075-0.9688-1.415-1.5527-2.1074l1.2451-0.8457h-2.2148
			v-1.6768h6.0752v-1.0762h-5.7061v-1.6309h3.3535V9.3578h-3.6611V7.7274H16.2202z"/>
		<path class="st0" d="M9.9751,24.1888v-2.4609h1.6924v2.4609h1.4912v1.6309h-1.4912v0.8457
			c0.7383,0.6768,1.3994,1.3379,1.9688,1.9844l-1.0771,1.5527c-0.3076-0.4766-0.5996-0.9229-0.8916-1.3223v6.7363H9.9751v-5.8594
			c-0.3223,0.8613-0.6768,1.6611-1.0762,2.3682l-1.0771-1.3838c0.4004-0.6152,0.8154-1.4766,1.2764-2.584
			c0.3086-0.7236,0.585-1.5078,0.8008-2.3379H8.2368v-1.6309H9.9751z M18.5122,21.7279v1.4463h3.3682v1.7373h-4.0918
			c-0.5693,0.8467-1.1074,1.585-1.6143,2.2305c0.2764,0.2002,0.5527,0.3848,0.8301,0.5693
			c0.7227-0.7695,1.3223-1.5381,1.7998-2.3076l1.5684,0.8926c-0.6611,1.1074-1.5537,2.2305-2.6611,3.3682
			c-1.5068,1.415-2.7373,2.3838-3.7061,2.9375l-1.0771-1.4297c0.8926-0.585,1.7998-1.292,2.7539-2.1533
			c-0.8311-0.5693-1.6768-1.1543-2.5234-1.7539l1.1387-1.3838c0.1543,0.123,0.3232,0.2305,0.4766,0.3223
			c0.3389-0.4307,0.6465-0.8613,0.9229-1.292h-2.3525v-1.7373h3.3066v-1.4463H18.5122z M21.5112,29.1263
			c-0.5234,0.7998-1.1846,1.5996-1.9688,2.3994c0.7998,0.7998,1.5684,1.6768,2.3379,2.6455l-1.4463,1.4453
			c-0.6611-0.9844-1.3994-1.9219-2.1992-2.8447c-1.6309,1.3535-2.9844,2.291-4.0449,2.8447l-1.1543-1.5068
			c1.2773-0.708,2.6152-1.6455,4-2.8145c1.2148-1.0313,2.1836-2.0615,2.9219-3.0762L21.5112,29.1263z"/>
	</g>
</g>
<g>
</g>
<g>
</g>
<g>
</g>
<g>
</g>
<g>
</g>
<g>
</g>
<g>
</g>
<g>
</g>
<g>
</g>
<g>
</g>
<g>
</g>
<g>
</g>
<g>
</g>
<g>
</g>
<g>
</g>
</svg>
