<?xml version="1.0" encoding="utf-8"?>
<!-- Generator: Adobe Illustrator 23.0.1, SVG Export Plug-In . SVG Version: 6.00 Build 0)  -->
<svg version="1.1" id="圖層_1" xmlns="http://www.w3.org/2000/svg" xmlns:xlink="http://www.w3.org/1999/xlink" x="0px" y="0px"
	 viewBox="0 0 62 62" style="enable-background:new 0 0 62 62;" xml:space="preserve">
<style type="text/css">
	.st0{fill:#FFFFFF;}
</style>
<g>
	<path class="st0" d="M23.9848,28.9374c-2.2965,0.8254-4.4365,1.6118-6.5885,2.364c-3.0031,1.0497-4.9379,3.2828-5.3805,6.2446
		c-0.7315,4.8955-0.9419,9.8689-1.3777,14.8766c13.6833,0,27.0814,0,40.7237,0c-0.4545-5.1282-0.7149-10.1087-1.4089-15.028
		c-0.343-2.4312-1.8609-4.5328-4.2464-5.5734c-2.4941-1.0881-5.0924-1.9373-7.6956-2.9098
		c-1.8284,3.4001-3.5231,6.6416-5.3267,9.8214c-0.3209,0.5658-1.1312,1.2567-1.6489,1.2062
		c-0.6485-0.0632-1.4504-0.7054-1.8003-1.318C27.4545,35.5031,25.7985,32.314,23.9848,28.9374z M40.3087,19.069
		c0.0479-5.3114-3.9221-9.4211-9.1679-9.4907c-5.2646-0.0698-9.4422,3.9748-9.4922,9.1902
		c-0.0506,5.2828,3.9757,9.4388,9.1907,9.4866C36.1444,28.3037,40.2614,24.3098,40.3087,19.069z"/>
	<path class="st0" d="M23.9848,28.9374c1.8138,3.3766,3.4698,6.5657,5.2504,9.6835c0.3499,0.6126,1.1518,1.2548,1.8003,1.318
		c0.5177,0.0505,1.328-0.6405,1.6489-1.2062c1.8036-3.1798,3.4982-6.4213,5.3267-9.8214c2.6032,0.9725,5.2015,1.8218,7.6956,2.9098
		c2.3854,1.0406,3.9034,3.1422,4.2464,5.5734c0.694,4.9193,0.9544,9.8999,1.4089,15.028c-13.6423,0-27.0404,0-40.7237,0
		c0.4358-5.0077,0.6462-9.9811,1.3777-14.8766c0.4426-2.9618,2.3774-5.1949,5.3805-6.2446
		C19.5483,30.5492,21.6883,29.7628,23.9848,28.9374z M38.9164,31.296c-1.7123,3.1667-3.4338,6.099-4.8919,9.1568
		c-0.6903,1.4478-1.6523,1.5529-2.973,1.5424c-1.3639-0.0108-2.4004-0.0795-3.1262-1.605c-1.4559-3.06-3.1986-5.9836-4.8828-9.0734
		c-1.4592,0.5304-2.831,1.1403-4.2631,1.5262c-2.8754,0.7747-4.5439,2.7821-4.9683,5.4995
		c-0.6235,3.9916-0.8041,8.0524-1.1845,12.2047c1.8833,0,3.5402,0,5.3003,0c0.1576-2.2378,0.3067-4.3561,0.4558-6.4743
		c0.2522-0.0946,0.5043-0.1892,0.7565-0.2839c0.3357,0.5257,0.9436,1.0448,0.9566,1.5783c0.0411,1.6863-0.1406,3.378-0.242,5.1718
		c7.4683,0,14.8379,0,22.3085,0c-0.1441-2.2086-0.2787-4.2721-0.419-6.4219c0.7765,0,1.2676,0,1.8705,0
		c0.1563,2.2075,0.3067,4.3312,0.455,6.4241c1.8567,0,3.463,0,5.2438,0c-0.2965-3.7352-0.579-7.3209-0.8687-10.9061
		c-0.0316-0.3911-0.0439-0.7994-0.168-1.1649c-0.7013-2.0655-1.4209-4.16-3.6684-5.0774
		C42.7986,32.6546,40.9406,32.0363,38.9164,31.296z"/>
	<path class="st0" d="M40.3087,19.069c-0.0472,5.2408-4.1643,9.2346-9.4694,9.1861c-5.215-0.0478-9.2413-4.2037-9.1907-9.4866
		c0.05-5.2154,4.2276-9.26,9.4922-9.1902C36.3866,9.6479,40.3565,13.7576,40.3087,19.069z M30.9785,26.4071
		c4.064,0.0218,7.5762-3.4752,7.5565-7.5236c-0.0196-4.0067-3.6261-7.567-7.6136-7.5159c-3.9855,0.051-7.3553,3.4637-7.3802,7.474
		C23.5153,23.0104,26.8324,26.3848,30.9785,26.4071z"/>
	<path class="st0" d="M38.9164,31.296c2.0242,0.7403,3.8822,1.3585,5.6911,2.0969c2.2475,0.9174,2.9671,3.0119,3.6684,5.0774
		c0.1241,0.3654,0.1364,0.7737,0.168,1.1649c0.2897,3.5851,0.5722,7.1708,0.8687,10.9061c-1.7808,0-3.3871,0-5.2438,0
		c-0.1482-2.093-0.2986-4.2167-0.455-6.4241c-0.6029,0-1.094,0-1.8705,0c0.1403,2.1499,0.2749,4.2133,0.419,6.4219
		c-7.4706,0-14.8402,0-22.3085,0c0.1014-1.7937,0.283-3.4854,0.242-5.1718c-0.013-0.5336-0.621-1.0526-0.9566-1.5783
		c-0.2522,0.0946-0.5043,0.1892-0.7565,0.2839c-0.1491,2.1183-0.2983,4.2365-0.4558,6.4743c-1.7601,0-3.417,0-5.3003,0
		c0.3804-4.1523,0.561-8.2131,1.1845-12.2047c0.4245-2.7174,2.0929-4.7247,4.9683-5.4995c1.4321-0.3859,2.8038-0.9957,4.2631-1.5262
		c1.6842,3.0898,3.4269,6.0134,4.8828,9.0734c0.7258,1.5255,1.7623,1.5942,3.1262,1.605c1.3207,0.0105,2.2826-0.0946,2.973-1.5424
		C35.4826,37.395,37.204,34.4627,38.9164,31.296z"/>
	<path class="st0" d="M30.9785,26.4071c-4.146-0.0222-7.4632-3.3966-7.4373-7.5655c0.0249-4.0104,3.3947-7.423,7.3802-7.474
		c3.9875-0.051,7.5941,3.5093,7.6136,7.5159C38.5547,22.9319,35.0424,26.4289,30.9785,26.4071z"/>
</g>
<g>
</g>
<g>
</g>
<g>
</g>
<g>
</g>
<g>
</g>
<g>
</g>
<g>
</g>
<g>
</g>
<g>
</g>
<g>
</g>
<g>
</g>
<g>
</g>
<g>
</g>
<g>
</g>
<g>
</g>
</svg>
