<?xml version="1.0" encoding="utf-8"?>
<!-- Generator: Adobe Illustrator 23.0.1, SVG Export Plug-In . SVG Version: 6.00 Build 0)  -->
<svg version="1.1" id="圖層_1" xmlns="http://www.w3.org/2000/svg" xmlns:xlink="http://www.w3.org/1999/xlink" x="0px" y="0px"
	 viewBox="0 0 62 62" style="enable-background:new 0 0 62 62;" xml:space="preserve">
<style type="text/css">
	.st0{fill:#FFFFFF;}
</style>
<g>
	<path class="st0" d="M13.933,45.7317c5.6683-0.1205,11.3411-0.0319,17.012-0.0345c4.2902,0,8.5804,0.0108,12.8704-0.0048
		c2.0193-0.0073,4.0493,0.0532,6.0545-0.1321c2.1921-0.2026,3.685-1.9083,3.6939-4.0942c0.0284-7.001,0.0213-14.0023-0.017-21.0032
		c-0.0115-2.1026-1.4884-3.7327-3.6022-4.0236c-1.0669-0.1468-2.1613-0.1244-3.2433-0.1258
		C35.7541,16.299,24.8067,16.3352,13.86,16.2663c-3.5558-0.0223-5.5271,1.8973-5.4343,5.3871
		c0.1652,6.2076,0.1816,12.4266-0.0029,18.6331C8.3185,43.7949,10.2961,45.8091,13.933,45.7317z M17.7051,20.7708
		c3.9772,3.9658,8.0179,7.868,12.037,11.7918c0.3799,0.3709,0.7793,0.7219,1.2485,1.155c0.4734-0.4139,0.8895-0.7441,1.2675-1.1134
		c3.9825-3.8898,7.9946-7.7504,11.9161-11.7008c1.2467-1.2559,2.5433-1.138,4.0427-0.8314
		c-3.6469,3.6219-7.2086,7.1592-10.8636,10.7892c3.7792,3.9031,7.2119,7.4483,10.7277,11.0794
		c-1.4691,0.2545-2.8785,0.5566-4.1196-0.8171c-2.5724-2.8474-5.204-5.6414-8.1052-8.7748
		c-1.4661,1.6396-2.4639,2.7864-3.4965,3.901c-0.8744,0.9438-1.8255,0.9036-2.6866,0.0052
		c-1.0497-1.0952-2.0366-2.2507-3.1225-3.4601c-2.9719,2.913-5.6775,5.563-8.3807,8.2154
		c-1.2258,1.2027-2.5068,1.4448-4.0807,0.8509c3.3701-3.508,6.7911-7.0689,10.4618-10.8898
		c-3.5835-3.6514-7.1054-7.24-10.6877-10.8902C15.2126,19.7921,16.4865,19.5557,17.7051,20.7708z"/>
</g>
<g>
</g>
<g>
</g>
<g>
</g>
<g>
</g>
<g>
</g>
<g>
</g>
<g>
</g>
<g>
</g>
<g>
</g>
<g>
</g>
<g>
</g>
<g>
</g>
<g>
</g>
<g>
</g>
<g>
</g>
</svg>
