<?xml version="1.0" encoding="utf-8"?>
<!-- Generator: Adobe Illustrator 23.0.1, SVG Export Plug-In . SVG Version: 6.00 Build 0)  -->
<svg version="1.1" id="圖層_1" xmlns="http://www.w3.org/2000/svg" xmlns:xlink="http://www.w3.org/1999/xlink" x="0px" y="0px"
	 viewBox="0 0 62 62" style="enable-background:new 0 0 62 62;" xml:space="preserve">
<style type="text/css">
	.st0{fill:#FFFFFF;}
</style>
<g>
	<path class="st0" d="M17.5629,36.0478c-3.4164-0.0778-5.5388-2.1045-5.5286-5.0946c0.0107-3.1634,2.1998-5.2133,5.6731-5.2357
		c4.3638-0.0281,8.7278-0.0068,13.1497-0.0068c0.2074-0.9846,0.3806-1.8073,0.5886-2.7952
		c-7.6937-1.8451-15.2275-3.6519-23.2267-5.5701C5.5861,28.4298,3.0076,39.2845,0.4096,50.2216c8.5359,0,16.5536,0,24.5818,0
		c1.1174-4.7318,2.1833-9.2449,3.3433-14.1563C24.5224,36.0652,21.0412,36.127,17.5629,36.0478z"/>
	<path class="st0" d="M54.7399,35.503c0.6803-0.3078,1.3927-0.6287,2.1169-0.9544c0.0074,0.0163,0.0146,0.0324,0.0222,0.0487
		c1.553-0.7027,3.078-1.3918,4.6122-2.0848c0.5365-7.5673-1.1061-14.5014-4.9164-20.734
		c-3.6809,1.6678-7.2791,3.2993-10.5988,4.8093C48.9272,23.0746,51.8522,29.1551,54.7399,35.503z"/>
	<path class="st0" d="M43.8787,20.4977c-4.5045-1.1871-9.0597-2.1843-13.6035-3.2198c-2.2854-0.5209-4.2169,0.0969-6.2181,1.9852
		c3.3508,0.8313,6.2451,1.5494,9.2777,2.3017c-0.5038,5.8807-0.5038,5.8829-5.6837,5.8903
		c-2.917,0.0042-5.8337-0.0079-8.7505,0.0008c-3.6121,0.0108-4.9924,0.9363-5.0559,3.3655
		c-0.0637,2.4437,1.3641,3.4512,4.9109,3.4592c1.7501,0.004,3.5002-0.0048,5.2502,0.0031
		c3.7007,0.0169,7.3074,0.1197,10.3437,2.8649c0.9863,0.8918,2.6438,1.1511,4.0475,1.4518
		c5.2013,1.1144,9.0918-1.6855,13.0607-4.3951c-1.8303-4.0187-3.54-7.9343-5.4178-11.7675
		C45.6378,21.617,44.7247,20.7206,43.8787,20.4977z"/>
</g>
<g>
</g>
<g>
</g>
<g>
</g>
<g>
</g>
<g>
</g>
<g>
</g>
<g>
</g>
<g>
</g>
<g>
</g>
<g>
</g>
<g>
</g>
<g>
</g>
<g>
</g>
<g>
</g>
<g>
</g>
</svg>
