<?xml version="1.0" encoding="utf-8"?>
<!-- Generator: Adobe Illustrator 23.0.1, SVG Export Plug-In . SVG Version: 6.00 Build 0)  -->
<svg version="1.1" id="圖層_1" xmlns="http://www.w3.org/2000/svg" xmlns:xlink="http://www.w3.org/1999/xlink" x="0px" y="0px"
	 viewBox="0 0 62 62" style="enable-background:new 0 0 62 62;" xml:space="preserve">
<style type="text/css">
	.st0{fill:#FFFFFF;}
</style>
<g>
	<path id="XMLID_4_" class="st0" d="M46.9843,25.3034H44.716l-6.8274,6.828c-0.0866,0.0866-0.1865,0.1587-0.2952,0.2131
		l-6.7592,3.3795c-0.4861,0.2419-1.0078,0.3607-1.525,0.3607c-0.8846,0-1.7559-0.3441-2.4106-1
		c-1.0389-1.0389-1.2963-2.6204-0.6393-3.9345l2.923-5.8468H15.0104c-1.8801,0-3.4095,1.5295-3.4095,3.4095v18.26
		c0,1.8801,1.5294,3.4095,3.4095,3.4095h31.974c1.8801,0,3.4095-1.5295,3.4095-3.4095v-18.26
		C50.3939,26.8328,48.8644,25.3034,46.9843,25.3034z M17.2834,34.3955h6.8948c0.6282,0,1.1365,0.5083,1.1365,1.1365
		c0,0.6282-0.5083,1.1365-1.1365,1.1365h-6.8948c-0.6282,0-1.1365-0.5083-1.1365-1.1365
		C16.1469,34.9039,16.6552,34.3955,17.2834,34.3955z M44.7113,45.8365H17.2834c-0.6282,0-1.1365-0.5083-1.1365-1.1365
		c0-0.6282,0.5083-1.1365,1.1365-1.1365h27.4279c0.6282,0,1.1365,0.5083,1.1365,1.1365
		C45.8478,45.3281,45.3395,45.8365,44.7113,45.8365z M44.7113,41.2904H17.2834c-0.6282,0-1.1365-0.5083-1.1365-1.1365
		c0-0.6282,0.5083-1.1365,1.1365-1.1365h27.4279c0.6282,0,1.1365,0.5083,1.1365,1.1365
		C45.8478,40.7821,45.3395,41.2904,44.7113,41.2904z"/>
	<path id="XMLID_3_" class="st0" d="M49.4002,17.4055c0.6437-0.6437,0.9989-1.5006,0.9989-2.4117
		c0-0.9101-0.3552-1.7669-0.9989-2.4106c-1.2886-1.2886-3.5372-1.2864-4.8213,0l-0.804,0.8038l4.8222,4.8217L49.4002,17.4055z"/>
	<path id="XMLID_2_" class="st0" d="M28.5056,33.4776c0.2187,0.2187,0.5095,0.333,0.8035,0.333
		c0.1731,0,0.3463-0.0389,0.5083-0.1199l5.697-2.8479l-4.3739-4.3741l-2.8479,5.697C28.0739,32.603,28.1594,33.1314,28.5056,33.4776
		z"/>
	<polygon id="XMLID_1_" class="st0" points="46.99,19.8157 42.1679,14.994 32.5235,24.6375 37.3459,29.4599 	"/>
</g>
<g>
</g>
<g>
</g>
<g>
</g>
<g>
</g>
<g>
</g>
<g>
</g>
<g>
</g>
<g>
</g>
<g>
</g>
<g>
</g>
<g>
</g>
<g>
</g>
<g>
</g>
<g>
</g>
<g>
</g>
</svg>
