<?xml version="1.0" encoding="utf-8"?>
<!-- Generator: Adobe Illustrator 23.0.1, SVG Export Plug-In . SVG Version: 6.00 Build 0)  -->
<svg version="1.1" id="圖層_1" xmlns="http://www.w3.org/2000/svg" xmlns:xlink="http://www.w3.org/1999/xlink" x="0px" y="0px"
	 viewBox="0 0 27 27" style="enable-background:new 0 0 27 27;" xml:space="preserve">
<style type="text/css">
	.st0{fill:#898989;}
</style>
<path class="st0" d="M9.8092,6.1881c0.2583,0.1172,0.5535,0.1877,0.7692,0.3587c2.485,1.9693,4.9609,3.95,7.4321,5.9365
	c0.7243,0.5822,0.7124,1.5216-0.0194,2.109c-2.4566,1.9716-4.917,3.9386-7.38,5.9022c-0.6069,0.4838-1.3895,0.4041-1.859-0.1682
	c-0.4716-0.5748-0.3801-1.3787,0.2358-1.8739c1.8975-1.526,3.8015-3.044,5.703-4.5649c0.367-0.2935,0.3678-0.4223,0.0038-0.7135
	c-1.8935-1.5145-3.7863-3.0298-5.6807-4.543C8.5798,8.2841,8.3718,7.8427,8.4885,7.2924c0.113-0.5328,0.4533-0.872,0.9853-1.0068
	c0.0994-0.0252,0.2038-0.0302,0.306-0.0445C9.7896,6.2234,9.7994,6.2058,9.8092,6.1881z"/>
<g>
</g>
<g>
</g>
<g>
</g>
<g>
</g>
<g>
</g>
<g>
</g>
<g>
</g>
<g>
</g>
<g>
</g>
<g>
</g>
<g>
</g>
<g>
</g>
<g>
</g>
<g>
</g>
<g>
</g>
</svg>
